<svg xmlns="http://www.w3.org/2000/svg" viewBox="0 0 53.56 53.56"><defs><style>.cls-1{fill:#4189dd;}.cls-2{fill:#fff;}.cls-3{fill:#d21034;}.cls-4{fill:#f9d616;}</style></defs><g id="Capa_2" data-name="Capa 2"><g id="Capa_2-2" data-name="Capa 2"><path class="cls-1" d="M52.15,35.37A26.78,26.78,0,0,0,26.78,0a27.24,27.24,0,0,0-4.24.33,26.8,26.8,0,0,0-21.13,35Zm-37-25.27,1.94-7.36L19,10.1l6.82,1.65-6.81,2.18-2,6.79-1.95-6.79L8.33,11.75Z"/><path class="cls-1" d="M22.54,53.23a27.54,27.54,0,0,0,2.88.3c.45,0,.91,0,1.36,0s.91,0,1.36,0a26.66,26.66,0,0,0,18.15-8.38h-39A26.7,26.7,0,0,0,22.54,53.23Z"/><path class="cls-1" d="M4.62,41.84H49a27.36,27.36,0,0,0,1.83-3.16h-48A27.43,27.43,0,0,0,4.62,41.84Z"/><path class="cls-2" d="M17.09,20.72l2-6.79,6.81-2.18L19,10.1,17.09,2.74,15.15,10.1,8.33,11.75l6.81,2.18ZM15.62,10.59,17.09,5l1.48,5.58,5.16,1.24-5.16,1.65-1.48,5.14-1.47-5.14-5.16-1.65Z"/><polygon class="cls-3" points="17.09 18.62 18.57 13.48 23.73 11.84 18.57 10.59 17.09 5.01 15.62 10.59 10.46 11.84 15.62 13.48 17.09 18.62"/><path class="cls-4" d="M1.52,35.69a25.5,25.5,0,0,0,1.26,3h48a25.5,25.5,0,0,0,1.26-3c0-.11.08-.22.11-.32H1.41C1.44,35.47,1.48,35.58,1.52,35.69Z"/><path class="cls-4" d="M7.28,45.15h39A25.87,25.87,0,0,0,49,41.84H4.62A25.87,25.87,0,0,0,7.28,45.15Z"/></g></g></svg>