<svg xmlns="http://www.w3.org/2000/svg" viewBox="0 0 54.78 54.78"><defs><style>.cls-1{fill:#fff;}.cls-2{fill:#023d9b;}.cls-3{fill:#cc231b;}.cls-4{fill:#f0f0f0;}</style></defs><g id="Capa_2" data-name="Capa 2"><g id="Capa_2-2" data-name="Capa 2"><path class="cls-1" d="M27.39,0h-.24V27.23H54.78A27.4,27.4,0,0,0,27.39,0Z"/><path class="cls-2" d="M27.15,0A27.39,27.39,0,0,0,0,27.23H27.15ZM18.54,20.44l-3.92-2.53-3.93,2.53,1.19-4.52L8.26,13l4.67-.26,1.69-4.36,1.68,4.36L21,13l-3.62,2.95Z"/><path class="cls-3" d="M0,27.23v.16a27.39,27.39,0,0,0,54.78,0v-.16H0Z"/><polygon class="cls-4" points="16.3 12.71 14.62 8.36 12.93 12.71 8.26 12.97 11.88 15.92 10.69 20.44 14.62 17.91 18.54 20.44 17.35 15.92 20.97 12.97 16.3 12.71"/></g></g></svg>