<svg xmlns="http://www.w3.org/2000/svg" viewBox="0 0 50.69 50.69"><defs><style>.cls-1{fill:#042b7d;}.cls-2{fill:#fff;}.cls-3{fill:#cd1225;}</style></defs><g id="Capa_2" data-name="Capa 2"><g id="Capa_2-2" data-name="Capa 2"><path class="cls-1" d="M44.22,8.45H6.47a25.31,25.31,0,0,1,37.75,0Z"/><path class="cls-2" d="M49.24,33.8a25.24,25.24,0,0,1-5,8.44H6.47a25.4,25.4,0,0,1-5-8.44Z"/><path class="cls-1" d="M44.22,42.24a25.31,25.31,0,0,1-37.75,0Z"/><path class="cls-3" d="M50.69,25.35a25.21,25.21,0,0,1-1.45,8.45H1.45a25.35,25.35,0,0,1,0-16.9H49.24A25.12,25.12,0,0,1,50.69,25.35Z"/><path class="cls-2" d="M49.24,16.9H1.45a25.35,25.35,0,0,1,5-8.45H44.22A25.18,25.18,0,0,1,49.24,16.9Z"/></g></g></svg>