<svg xmlns="http://www.w3.org/2000/svg" viewBox="0 0 53.27 53.27"><defs><style>.cls-1{fill:#0a73cd;}.cls-2{fill:#fff;}</style></defs><g id="Capa_2" data-name="Capa 2"><g id="Capa_2-2" data-name="Capa 2"><path class="cls-1" d="M26.64,0A26.7,26.7,0,0,0,1.52,17.76H51.75A26.7,26.7,0,0,0,26.64,0Z"/><path class="cls-2" d="M53.27,26.64a26.67,26.67,0,0,0-1.52-8.88H1.52a26.67,26.67,0,0,0,0,17.75H51.75A26.57,26.57,0,0,0,53.27,26.64Z"/><path class="cls-1" d="M1.52,35.51a26.64,26.64,0,0,0,50.23,0Z"/><polygon class="cls-1" points="26.64 24.23 27.3 26.26 29.43 26.26 27.7 27.51 28.36 29.55 26.64 28.29 24.91 29.55 25.57 27.51 23.84 26.26 25.98 26.26 26.64 24.23"/><polygon class="cls-1" points="12.35 19.7 13 21.73 15.14 21.73 13.42 22.99 14.07 25.02 12.35 23.77 10.62 25.02 11.28 22.99 9.55 21.73 11.69 21.73 12.35 19.7"/><polygon class="cls-1" points="12.35 28.25 13 30.28 15.14 30.28 13.42 31.54 14.07 33.57 12.35 32.31 10.62 33.57 11.28 31.54 9.55 30.28 11.69 30.28 12.35 28.25"/><polygon class="cls-1" points="40.93 19.7 41.59 21.73 43.72 21.73 41.99 22.99 42.66 25.02 40.93 23.77 39.2 25.02 39.86 22.99 38.13 21.73 40.27 21.73 40.93 19.7"/><polygon class="cls-1" points="40.93 28.25 41.59 30.28 43.72 30.28 41.99 31.54 42.66 33.57 40.93 32.31 39.2 33.57 39.86 31.54 38.13 30.28 40.27 30.28 40.93 28.25"/></g></g></svg>