<svg xmlns="http://www.w3.org/2000/svg" viewBox="0 0 54 54.03"><defs><style>.cls-1{fill:#fff;}.cls-2{fill:#00247d;}.cls-3{fill:#cf142b;}</style></defs><g id="Capa_2" data-name="Capa 2"><g id="Capa_2-2" data-name="Capa 2"><polygon class="cls-1" points="11.88 26.2 13.24 26.2 13.24 18.28 25.75 26.2 30.48 26.2 30.48 23.23 21.39 17.45 30.48 17.45 30.48 15.71 11.88 15.71 11.88 26.2"/><path class="cls-2" d="M21.35,8.74h9.13v8.71H21.39l9.09,5.78v3H25.75L13.24,18.28V26.2H6.34V18.28L.47,22A27,27,0,1,0,30.48.25V3Z"/><path class="cls-2" d="M25.71.06A26.86,26.86,0,0,0,13.24,3.79V8Z"/><path class="cls-1" d="M27,0h.28l0,0H25.8l-.09.06Q26.36,0,27,0Z"/><path class="cls-1" d="M7.75,8.1a26.93,26.93,0,0,0-2.06,2.34H7.75Z"/><path class="cls-1" d="M16.75,8.74H13.62L27.28,0H27l-1.29,0L13.24,8V3.79c-.46.28-.91.57-1.36.87v5.78h18.6V8.74H21.35L30.48,3V.25l-.37,0Z"/><path class="cls-1" d="M6.34,26.2H7.75V15.71H2.48a27.79,27.79,0,0,0-1.06,2.66l1.44-.92H6L.72,20.8c-.09.4-.18.8-.25,1.2l5.87-3.72Z"/><path class="cls-3" d="M7.75,15.71V26.2h4.13V15.71h18.6V10.44H11.88V4.66A27.22,27.22,0,0,0,7.75,8.1v2.34H5.69a27.19,27.19,0,0,0-3.21,5.27Z"/><path class="cls-3" d="M16.75,8.74,30.11.21A26.21,26.21,0,0,0,27.28,0L13.62,8.74Z"/><path class="cls-3" d="M6,17.45H2.86l-1.44.92c-.27.79-.5,1.61-.7,2.43Z"/><polygon class="cls-3" points="30.48 24.3 30.48 26.2 16.73 17.45 19.78 17.45 30.48 24.3"/><polygon class="cls-1" points="41.5 18.07 42.16 20.05 44.21 20.05 42.56 21.26 43.16 23.19 41.46 22.04 39.8 23.27 40.46 21.26 38.77 20.05 40.86 20.05 41.5 18.07"/><polygon class="cls-1" points="33.17 26.44 33.83 28.42 35.88 28.42 34.23 29.63 34.83 31.56 33.13 30.41 31.47 31.64 32.13 29.63 30.44 28.42 32.53 28.42 33.17 26.44"/><polygon class="cls-1" points="41.49 39.39 42.22 41.57 44.47 41.57 42.66 42.9 43.32 45.02 41.45 43.76 39.63 45.11 40.35 42.9 38.49 41.57 40.79 41.57 41.49 39.39"/><polygon class="cls-1" points="48.63 24.55 49.24 26.37 51.02 26.37 49.57 27.43 50.13 29.18 48.62 28.11 47.12 29.19 47.7 27.43 46.23 26.37 48.04 26.37 48.63 24.55"/><polygon class="cls-3" points="41.49 19.02 41.94 20.36 43.26 20.36 42.18 21.14 42.59 22.43 41.48 21.64 40.37 22.44 40.8 21.14 39.72 20.36 41.05 20.36 41.49 19.02"/><polygon class="cls-3" points="33.16 27.39 33.61 28.73 34.93 28.73 33.85 29.51 34.26 30.8 33.16 30.02 32.04 30.81 32.47 29.51 31.39 28.73 32.73 28.73 33.16 27.39"/><polygon class="cls-3" points="41.48 40.43 41.97 41.93 43.42 41.93 42.24 42.81 42.69 44.25 41.48 43.37 40.26 44.26 40.72 42.81 39.54 41.93 41.01 41.93 41.48 40.43"/><polygon class="cls-3" points="48.63 25.45 49.04 26.65 50.26 26.65 49.27 27.36 49.65 28.52 48.63 27.81 47.6 28.52 47.99 27.36 46.99 26.65 48.23 26.65 48.63 25.45"/></g></g></svg>