<svg xmlns="http://www.w3.org/2000/svg" viewBox="0 0 52.67 52.67"><defs><style>.cls-1{fill:none;}.cls-2{fill:#fff;}.cls-3{fill:#30548d;}.cls-4{fill:#b42538;}</style></defs><g id="Capa_2" data-name="Capa 2"><g id="Capa_2-2" data-name="Capa 2"><path class="cls-1" d="M26.24,52.63H24.81c.51,0,1,0,1.53,0s1,0,1.52,0Z"/><path class="cls-2" d="M26.24,52.63h1.62A26.34,26.34,0,0,0,52.67,26.34v0H26.24Z"/><path class="cls-2" d="M26.24,0A26.33,26.33,0,0,0,0,26.31H26.24Z"/><path class="cls-3" d="M26.24,26.31H0v0A26.34,26.34,0,0,0,24.81,52.63h1.43Z"/><path class="cls-4" d="M52.67,26.31A26.33,26.33,0,0,0,26.34,0h-.1V26.31Z"/><polygon class="cls-4" points="39.48 42.75 35.88 45.42 35.95 45.18 37.18 41.05 37.22 40.91 33.4 38.23 33.2 38.1 38.07 38.07 38.12 37.9 39.36 33.76 39.44 33.52 40.79 37.88 40.84 38.06 45.71 38.04 45.52 38.17 41.72 40.89 41.76 41.03 43.04 45.15 43.11 45.38 39.5 42.76 39.48 42.75"/><polygon class="cls-3" points="13.15 16.44 9.54 19.11 9.61 18.87 10.85 14.74 10.88 14.6 7.06 11.92 6.87 11.78 11.74 11.76 11.79 11.58 13.02 7.45 13.1 7.2 14.45 11.57 14.51 11.75 19.38 11.72 19.18 11.86 15.39 14.58 15.43 14.71 16.7 18.84 16.78 19.07 13.16 16.45 13.15 16.44"/></g></g></svg>