<svg xmlns="http://www.w3.org/2000/svg" xmlns:xlink="http://www.w3.org/1999/xlink" viewBox="0 0 78.99 53.66"><defs><style>.cls-1,.cls-12,.cls-18,.cls-21,.cls-22,.cls-9{fill:none;}.cls-2{clip-path:url(#clip-path);}.cls-20,.cls-3,.cls-7{fill:#fff;}.cls-10,.cls-17,.cls-4{fill:#ed1b2d;}.cls-16,.cls-5{fill:#fff200;}.cls-10,.cls-12,.cls-13,.cls-14,.cls-15,.cls-16,.cls-17,.cls-18,.cls-19,.cls-5,.cls-6,.cls-7,.cls-8,.cls-9{stroke:#000;}.cls-10,.cls-12,.cls-15,.cls-5,.cls-6,.cls-7{stroke-width:0.01px;}.cls-6{fill:#99bfe5;}.cls-11,.cls-8{fill:#e4c0a1;}.cls-13,.cls-14,.cls-16,.cls-17,.cls-18,.cls-19,.cls-20,.cls-21,.cls-8,.cls-9{stroke-width:0px;}.cls-13,.cls-15,.cls-19{fill:#22772d;}.cls-14{fill:#6e5200;}.cls-17,.cls-18,.cls-19,.cls-20,.cls-21{stroke-linecap:square;stroke-miterlimit:2;}.cls-20,.cls-21{stroke:#ed1b2d;}.cls-22{stroke:#231f20;stroke-width:0.07px;}</style><clipPath id="clip-path" transform="translate(13 0.33)"><circle class="cls-1" cx="26.5" cy="26.5" r="26.5"/></clipPath></defs><g id="Capa_2" data-name="Capa 2"><g id="Capa_2-2" data-name="Capa 2"><g class="cls-2"><rect class="cls-3" x="0.03" y="0.03" width="78.93" height="53.59"/><rect class="cls-4" x="0.03" y="0.03" width="26.31" height="53.59"/><rect class="cls-4" x="52.65" y="0.03" width="26.31" height="53.59"/><path class="cls-5" d="M31.42,28.65a7.3,7.3,0,0,1-.75-2,4.18,4.18,0,0,1,.59-3.47l.17-.23-.23-.15a3.1,3.1,0,0,1-1.11-1.36l-.1-.25-.25.1a3.33,3.33,0,0,1-2.4.08,3.46,3.46,0,0,1-.86-.46l-.16-.12-.16.11a3.17,3.17,0,0,1-3.2.49l-.25-.11-.1.26a3.09,3.09,0,0,1-1.1,1.33l-.22.17.17.21a3.8,3.8,0,0,1,.51.92,5,5,0,0,1,0,3.32h0a7.66,7.66,0,0,0-.61,2.63,2,2,0,0,0,.46,1.12l.16.21h0a2.42,2.42,0,0,0,1.7.73l.33,0a9.39,9.39,0,0,1,1.3.18h0l.09,0a1.85,1.85,0,0,1,.92.54l.19.18.18-.19a3.69,3.69,0,0,1,2.78-.88,1.64,1.64,0,0,0,.32,0h0a3,3,0,0,0,1.05-.55A2.82,2.82,0,0,0,31.42,28.65Z" transform="translate(13 0.33)"/><path class="cls-6" d="M22.29,27.47a5.26,5.26,0,0,0-.07-3.37,4.24,4.24,0,0,0-.55-1,3.37,3.37,0,0,0,1.19-1.45,3.16,3.16,0,0,0,.89.23,3.57,3.57,0,0,0,2.47-.67l.06,6.19Z" transform="translate(13 0.33)"/><path class="cls-7" d="M26.42,21.22a3.3,3.3,0,0,0,.83.44,3.54,3.54,0,0,0,2.59-.1,3.31,3.31,0,0,0,1.21,1.49,4.43,4.43,0,0,0-.64,3.69c.05.22.17.62.17.62l-4,.05S26.45,23.31,26.42,21.22Z" transform="translate(13 0.33)"/><polygon class="cls-8" points="35.33 27.68 36.55 27.3 37.51 27.48 37.89 27.37 39.27 27.62 39.28 27.74 35.29 27.8 35.33 27.68"/><line class="cls-8" x1="37.48" y1="27.49" x2="36.75" y2="27.76"/><path class="cls-8" d="M26.55,27.32S28,27,28.06,27a6.13,6.13,0,0,1,.62,0,2.42,2.42,0,0,0,.45.06,3.77,3.77,0,0,1,.67,0c.08,0,.75.19.75.19l0,.07-4,.06Z" transform="translate(13 0.33)"/><path class="cls-9" d="M29,27l.33.13.41.2" transform="translate(13 0.33)"/><path class="cls-10" d="M30.64,27.55a6.6,6.6,0,0,0,.56,1.24,2.6,2.6,0,0,1-.46,2.54,3,3,0,0,1-.94.49,1.52,1.52,0,0,1-.27,0,3.88,3.88,0,0,0-3,1,2,2,0,0,0-1-.61l-.07,0A5.53,5.53,0,0,0,24.07,32l-.33,0a2,2,0,0,1-1.68-.84h0a1.83,1.83,0,0,1-.41-1,7.3,7.3,0,0,1,.58-2.47Z" transform="translate(13 0.33)"/><path class="cls-5" d="M23.61,27.23H23.5s-.07-.09-.07-.09a.64.64,0,0,1,0-.09l-.06-.12a.49.49,0,0,1-.05-.23.68.68,0,0,0-.12-.28s.07-.39.08-.48a.66.66,0,0,0-.11-.37,2.08,2.08,0,0,1-.15-.39s0-.1,0-.12v-.14A.14.14,0,0,0,23,25a.41.41,0,0,0,0,.11s0,.08,0,.11a.19.19,0,0,1,0,.08.06.06,0,0,1-.06,0s0-.05,0-.05a.52.52,0,0,1,0-.41,1.32,1.32,0,0,1,.36-.33,1.85,1.85,0,0,1,.61,0,5.8,5.8,0,0,0,.92,0c.19,0,.32.06.45-.5v-.06s0-.84,0-.89a.83.83,0,0,1,.15-.3s-.08-.19.17-.36a.65.65,0,0,1,0,.28.86.86,0,0,1,.23.15c0,.06.22.11.24.12s0,0,0,0S26,23,26,23s-.05.09-.07.11a2,2,0,0,1-.26,0s-.11,0-.13.09,0,1.21,0,1.26a1.31,1.31,0,0,1-.05.15,1.39,1.39,0,0,1,0,.65v0l0,0a1.94,1.94,0,0,1-.16.24l0,0s-.12.12-.11.22-.06,1.21.11,1.4l0,0,0,0s-.07,0-.1,0A.51.51,0,0,1,25,27c0-.05-.05-.63-.05-.65l-.05-.08a6.85,6.85,0,0,0-.13.79.28.28,0,0,0,.11.14s0,0,0,0-.14,0-.16,0a.52.52,0,0,1,0-.21,5.39,5.39,0,0,0,.06-.87,1.92,1.92,0,0,1,0-.63.06.06,0,0,0,0-.07s-.57.33-.89-.15h-.06a.91.91,0,0,0,0,.16,1,1,0,0,1-.05.33c0,.07-.17.41-.18.46a.73.73,0,0,0,0,.18,6.06,6.06,0,0,0,.28.76l.09.06-.16,0-.38-.88a.39.39,0,0,1,0-.06,1.53,1.53,0,0,0,0,.36,2.29,2.29,0,0,0,.14.51l.12.11Z" transform="translate(13 0.33)"/><path class="cls-11" d="M25.27,23.66s0,0,0,0h0a0,0,0,0,0,0,0h0s0,0,0,0l0,0s0,0,0,0,0,0,0-.07h0s0,0,0,0h0s0,0,0,0h0v0Z" transform="translate(13 0.33)"/><path class="cls-11" d="M25.39,23.89s0,0,0,0S25.39,23.88,25.39,23.89Z" transform="translate(13 0.33)"/><path class="cls-11" d="M25.29,24.19h0s0,0,0,0h0s0-.05,0-.08S25.28,24.18,25.29,24.19Z" transform="translate(13 0.33)"/><path class="cls-11" d="M25.45,24.16v0Z" transform="translate(13 0.33)"/><path class="cls-11" d="M25.35,24.22h0S25.35,24.21,25.35,24.22Z" transform="translate(13 0.33)"/><path class="cls-11" d="M25.06,24.46s0,0,0,0h0S25,24.45,25.06,24.46Z" transform="translate(13 0.33)"/><path class="cls-11" d="M24.92,24.51s0,0,0,0S24.94,24.5,24.92,24.51Z" transform="translate(13 0.33)"/><path class="cls-11" d="M25,24.61h0S25,24.62,25,24.61Z" transform="translate(13 0.33)"/><path class="cls-11" d="M25.18,24.6s0,0,0,0,0,0,0,0,0,0,0,0v0Z" transform="translate(13 0.33)"/><path class="cls-11" d="M25.09,24.69s0,0,0,0Z" transform="translate(13 0.33)"/><path class="cls-11" d="M25.09,24.77s0,0,0,0Z" transform="translate(13 0.33)"/><path class="cls-11" d="M24.79,24.81s0,0,0,0h0Z" transform="translate(13 0.33)"/><path class="cls-11" d="M23.16,24.87s0,0,0,0v0Z" transform="translate(13 0.33)"/><path class="cls-11" d="M23.74,24.9h0s0,0,0,0h0v0Z" transform="translate(13 0.33)"/><path class="cls-11" d="M24.87,24.87a.08.08,0,0,0,0,0h0s0,0,0,0h0S24.84,24.86,24.87,24.87Z" transform="translate(13 0.33)"/><path class="cls-11" d="M23.13,25s0,0,0,0Z" transform="translate(13 0.33)"/><path class="cls-11" d="M23.78,25s0,0,0,0h0s0,0,0,0h0s0,0,0,0S23.77,25,23.78,25Z" transform="translate(13 0.33)"/><path class="cls-11" d="M23.13,25s0,0,0,0,0,0,0,0Z" transform="translate(13 0.33)"/><polygon class="cls-11" points="36.83 25.37 36.83 25.39 36.83 25.38 36.81 25.36 36.83 25.38 36.83 25.37"/><path class="cls-11" d="M23.17,25.08v0Z" transform="translate(13 0.33)"/><path class="cls-11" d="M24,25.13s0,0,0,0,0,0,0,0h0l0,0s0,0,0,0v0h0l0,0Z" transform="translate(13 0.33)"/><path class="cls-11" d="M24.71,25.14s0,0,0,0h0S24.73,25.15,24.71,25.14Z" transform="translate(13 0.33)"/><path class="cls-11" d="M23.18,25.21s0,0,0,0h0S23.16,25.19,23.18,25.21Z" transform="translate(13 0.33)"/><path class="cls-11" d="M23.21,25.24s0,0,0,0h0s0,0,0,0h0s0,.06,0,.06h0s0,0,0,0,0,0,0,0h0s0,0,0-.05,0,0,0,0,0,0,0,0l0,0s0,0,0,0Z" transform="translate(13 0.33)"/><path class="cls-11" d="M24.09,25.27s0,0,0,0Z" transform="translate(13 0.33)"/><path class="cls-11" d="M24.86,25.37l0,0S24.88,25.37,24.86,25.37Z" transform="translate(13 0.33)"/><path class="cls-11" d="M24.94,25.48s0,0,0,.06h0s0-.05,0,0,0,.06,0,.1h0v-.15h0s0,0,0,0S25,25.46,24.94,25.48Z" transform="translate(13 0.33)"/><path class="cls-11" d="M25,25.75h0s0,0,0,0h0Z" transform="translate(13 0.33)"/><polygon class="cls-11" points="37.79 26.1 37.78 26.05 37.79 26.08 37.79 26.1"/><path class="cls-11" d="M24.81,25.79s0,0,0,0h0v0Z" transform="translate(13 0.33)"/><path class="cls-11" d="M23.61,25.87h0l0,0s0,0,0,0h0Z" transform="translate(13 0.33)"/><polygon class="cls-11" points="36.31 26.37 36.31 26.34 36.32 26.36 36.31 26.37"/><path class="cls-11" d="M23.31,26.08s0,0,0,0h0Z" transform="translate(13 0.33)"/><path class="cls-11" d="M24.85,26.13s0,0,0,0h0s0,0,0,0,0,0,0,0,0,0,0-.05h0s0,0,0,0Z" transform="translate(13 0.33)"/><path class="cls-11" d="M24.84,26.29h0l0,0v-.06Z" transform="translate(13 0.33)"/><path class="cls-11" d="M23.53,26.4s0,0,0,0,0,0,0,0,0,0,0,0,0,0,0,0,0,0,0,0S23.54,26.35,23.53,26.4Z" transform="translate(13 0.33)"/><rect class="cls-11" x="37.83" y="26.74" width="0.01" height="0.05"/><path class="cls-11" d="M23.56,26.48s0,0,0,0,0,0,0,0,0,0,0-.05h0Z" transform="translate(13 0.33)"/><path class="cls-12" d="M23.41,26.26a1.39,1.39,0,0,1,.11-.39,2,2,0,0,0,.21-.47c0-.08,0-.28,0-.34" transform="translate(13 0.33)"/><line class="cls-12" x1="38.35" y1="25.4" x2="38.4" y2="25.63"/><line class="cls-12" x1="38.35" y1="24.86" x2="38.49" y2="24.99"/><path class="cls-12" d="M24.72,25.19l.1.32s.06.35.08.42a1.49,1.49,0,0,1,0,.28" transform="translate(13 0.33)"/><path class="cls-11" d="M25.38,22.81s0,0,0,0h0Z" transform="translate(13 0.33)"/><path d="M25.64,22.86h0s0,0,0,0-.11,0-.17,0-.06,0-.06-.08.09,0,.12,0S25.63,22.83,25.64,22.86Z" transform="translate(13 0.33)"/><path class="cls-3" d="M25.55,22.88s0,0,0,0S25.57,22.86,25.55,22.88Z" transform="translate(13 0.33)"/><path class="cls-11" d="M25.44,23.19h0s0,0,0,0h0S25.42,23.18,25.44,23.19Z" transform="translate(13 0.33)"/><polygon class="cls-11" points="38.23 23.55 38.23 23.53 38.24 23.55 38.23 23.55"/><path class="cls-11" d="M25.45,23.3s0-.07,0-.08Z" transform="translate(13 0.33)"/><path class="cls-11" d="M25.38,23.28s0,0,0,0S25.39,23.28,25.38,23.28Z" transform="translate(13 0.33)"/><path class="cls-11" d="M25.24,23.3s0,0,0,0h0v0h0Z" transform="translate(13 0.33)"/><path class="cls-11" d="M25.38,23.38a0,0,0,0,0,0,0s0,0,0,0,0,0,0,0v0Z" transform="translate(13 0.33)"/><path class="cls-11" d="M25.39,23.54h0s0,0,0,0,0,0,0,0,0,0,0,0h0s0,0,0,0S25.39,23.52,25.39,23.54Z" transform="translate(13 0.33)"/><path class="cls-11" d="M25.32,23.57l0-.05S25.34,23.55,25.32,23.57Z" transform="translate(13 0.33)"/><path class="cls-13" d="M27.88,24.37a.64.64,0,0,0-.08-.51s-.1.32,0,.45a1.23,1.23,0,0,0-.35.29S27.65,24.66,27.88,24.37Z" transform="translate(13 0.33)"/><path class="cls-13" d="M27.9,23.65a.51.51,0,0,0,0-.53.84.84,0,0,0-.09.45,1,1,0,0,0-.43.1S27.59,23.84,27.9,23.65Z" transform="translate(13 0.33)"/><path class="cls-13" d="M28.34,23.18c.34-.13.41-.31.41-.31s-.33.06-.4.22c0,0-.27-.27-.4-.27A.42.42,0,0,0,28.34,23.18Z" transform="translate(13 0.33)"/><path class="cls-13" d="M28.68,23.75a.42.42,0,0,0,.51-.21,1.84,1.84,0,0,0-.45.15,1.32,1.32,0,0,0-.24-.4S28.42,23.49,28.68,23.75Z" transform="translate(13 0.33)"/><path class="cls-13" d="M27.54,25.12c-.13-.34-.31-.41-.31-.41s.06.33.22.4a1.36,1.36,0,0,0-.17.42S27.48,25.49,27.54,25.12Z" transform="translate(13 0.33)"/><path class="cls-13" d="M27.91,25.2c-.05-.37-.22-.47-.22-.47s0,.34.13.44a1.31,1.31,0,0,0-.26.37S27.77,25.54,27.91,25.2Z" transform="translate(13 0.33)"/><path class="cls-13" d="M28.88,25.17c.17.33.36.37.36.37s-.11-.32-.28-.37a1.26,1.26,0,0,0,.12-.44S28.88,24.81,28.88,25.17Z" transform="translate(13 0.33)"/><path class="cls-13" d="M29.29,25.05c.13.35.31.41.31.41s-.07-.33-.23-.4c0,0,.26-.22.26-.35S29.34,24.69,29.29,25.05Z" transform="translate(13 0.33)"/><path class="cls-13" d="M29.13,24.22a.65.65,0,0,0,.48.18s-.23-.25-.4-.22c0,0,.09-.35,0-.46A.39.39,0,0,0,29.13,24.22Z" transform="translate(13 0.33)"/><path class="cls-13" d="M28.74,24.55a.44.44,0,0,0,.5.07s-.25-.19-.42-.15a1.22,1.22,0,0,0-.1-.44A.49.49,0,0,0,28.74,24.55Z" transform="translate(13 0.33)"/><path class="cls-14" d="M28.22,24.69c-.12-.32-.76-.59-.76-.59a3.67,3.67,0,0,1,.53.4,2.07,2.07,0,0,1,.29.93,1.32,1.32,0,0,0-1.14-.35s1,0,1.12.62a4.07,4.07,0,0,1-.14,1.62,2.93,2.93,0,0,1,.55,0,6.26,6.26,0,0,1-.12-1.65,1,1,0,0,1,1.2-.58,1.08,1.08,0,0,0-1.23.38A1.58,1.58,0,0,1,29.39,24a2,2,0,0,0-.85.68A2.32,2.32,0,0,1,29,23.23a4,4,0,0,0-.56,1,7.73,7.73,0,0,1-.12-1.43,10.14,10.14,0,0,1-.07,1.4,1.8,1.8,0,0,0-.66-.85A2.23,2.23,0,0,1,28.22,24.69Z" transform="translate(13 0.33)"/><path class="cls-13" d="M27.45,24.09a.53.53,0,0,0-.3-.38.32.32,0,0,0,0,.08s.16.29.19.32a.74.74,0,0,0-.17.31S27.35,24.42,27.45,24.09Z" transform="translate(13 0.33)"/><path class="cls-13" d="M27.37,24.12a.54.54,0,0,1-.5-.06S27.21,23.89,27.37,24.12Z" transform="translate(13 0.33)"/><path class="cls-13" d="M27.59,23.31a.56.56,0,0,0-.08-.48.32.32,0,0,0,0,.07s0,.34,0,.38a1.28,1.28,0,0,0-.27.25S27.39,23.64,27.59,23.31Z" transform="translate(13 0.33)"/><path class="cls-13" d="M27.5,23.3a.54.54,0,0,1-.41-.29S27.47,23,27.5,23.3Z" transform="translate(13 0.33)"/><path class="cls-13" d="M28.33,22.77c.31-.12.36-.25.36-.25a.33.33,0,0,0-.12,0,2,2,0,0,0-.27.17.66.66,0,0,0-.32-.15S28,22.69,28.33,22.77Z" transform="translate(13 0.33)"/><path class="cls-13" d="M28.31,22.69a.59.59,0,0,1,0-.5S28.53,22.52,28.31,22.69Z" transform="translate(13 0.33)"/><path class="cls-13" d="M29,23.25a.43.43,0,0,0,.42,0s-.07-.09-.1-.09l-.28-.05a.86.86,0,0,0-.18-.3S28.79,23,29,23.25Z" transform="translate(13 0.33)"/><path class="cls-13" d="M29.05,23.16a.51.51,0,0,1,.3-.39S29.32,23.14,29.05,23.16Z" transform="translate(13 0.33)"/><path class="cls-13" d="M29.39,24a.55.55,0,0,0,.39.29.41.41,0,0,0,0-.07L29.49,24a.46.46,0,0,0,0-.37S29.4,23.67,29.39,24Z" transform="translate(13 0.33)"/><path class="cls-13" d="M29.47,24a.51.51,0,0,1,.49-.07S29.68,24.14,29.47,24Z" transform="translate(13 0.33)"/><path class="cls-13" d="M29.71,25.07a.54.54,0,0,0,.12.46.15.15,0,0,0,0-.07s0-.34-.05-.37a.81.81,0,0,0,.27-.22S29.92,24.79,29.71,25.07Z" transform="translate(13 0.33)"/><path class="cls-13" d="M29.79,25.07a.53.53,0,0,1,.44.24S29.85,25.34,29.79,25.07Z" transform="translate(13 0.33)"/><path class="cls-13" d="M27.16,25.09a.56.56,0,0,0-.4-.27.17.17,0,0,0,0,.07,3.53,3.53,0,0,0,.28.25.72.72,0,0,0-.06.34S27.18,25.43,27.16,25.09Z" transform="translate(13 0.33)"/><path class="cls-13" d="M27.09,25.14a.49.49,0,0,1-.48.1S26.87,25,27.09,25.14Z" transform="translate(13 0.33)"/><path class="cls-15" d="M26.34,20.75a1.36,1.36,0,0,0,.6.09.52.52,0,0,0-.21-.22s0,0,0,0h0a.9.9,0,0,0,.72.08.53.53,0,0,0-.23-.17l.07-.05h0a.73.73,0,0,0,.65,0c-.07-.1-.25-.12-.25-.14l.09-.07s0,0,0,0c.56,0,.63-.18.63-.18s-.28-.05-.27-.06l.09-.12h0a.93.93,0,0,0,.56-.42.61.61,0,0,0-.27,0s0,0,0,0a.5.5,0,0,1,.05-.13.07.07,0,0,1,0,0c.41-.39.35-.59.35-.59a.58.58,0,0,0-.25.16v-.14c.23-.49.13-.72.13-.72s-.18.21-.18.21a.6.6,0,0,1-.06-.31c0-.12-.1-.53-.16-.53a.57.57,0,0,0-.08.29s0,0,0,0-.07-.27-.08-.3a1.06,1.06,0,0,0-.25-.39.7.7,0,0,0,0,.29s-.09-.05-.1-.08a.84.84,0,0,0-.39-.5,1,1,0,0,0,.06.28h0s-.13-.08-.14-.14-.2-.37-.4-.37a.37.37,0,0,0,.1.27.23.23,0,0,1-.18-.09.91.91,0,0,0-.52-.32s0,0,.14.27a.44.44,0,0,0-.32,0,.46.46,0,0,0,.27.18.48.48,0,0,0-.25.2,1.08,1.08,0,0,0,.67-.12s.05,0,.06,0,0,0,0,0-.24.06-.26.13a1,1,0,0,0,.66,0h0s0,.06,0,.06a.57.57,0,0,0-.3.06.91.91,0,0,0,.64.15h0s0,0,0,.06,0,0,0,0a.57.57,0,0,0-.29,0,.74.74,0,0,0,.53.25s.07,0,.08,0l0,.08s-.25-.09-.33,0a1.12,1.12,0,0,0,.56.39l0,0s0,.06,0,.07h0s-.18-.15-.24-.14a.79.79,0,0,0,.35.58,0,0,0,0,1,0,0,1,1,0,0,1,0,.1s-.09-.21-.2-.26a1.31,1.31,0,0,0,.1.64s0,0,0,0a.15.15,0,0,1,0,.08l0,0v0s0-.23-.07-.26-.2.16-.15.67c0,0,0,0,0,0l-.12,0a.86.86,0,0,0,.05-.31s-.24,0-.37.57c0,0,0,0,0,0l-.08,0,0,0a.51.51,0,0,0,.09-.29,1,1,0,0,0-.46.5h-.12s0,0,0,0a.42.42,0,0,0,.16-.28,1.26,1.26,0,0,0-.54.39h-.09a0,0,0,0,1,0,0s.19-.09.19-.24a1,1,0,0,0-.56.25,1.09,1.09,0,0,0-.58-.27c0,.16.18.24.18.25s0,0,0,0-.06,0-.06,0h0a1.32,1.32,0,0,0-.55-.39.36.36,0,0,0,.17.27,0,0,0,0,1,0,0h-.1v0a1,1,0,0,0-.46-.49.49.49,0,0,0,.08.29l0,0-.07,0a0,0,0,0,1,0,0c-.13-.54-.37-.57-.37-.57a1.21,1.21,0,0,0,.05.31l-.12,0s0,0,0,0c.05-.5-.15-.66-.15-.66s-.06.25-.06.25v0a0,0,0,0,1,0,0,.12.12,0,0,1,0-.08.1.1,0,0,1,0,0,1.19,1.19,0,0,0,.1-.64c-.11.05-.19.26-.19.26a.3.3,0,0,1,0-.1s0,0,0,0a.8.8,0,0,0,.35-.59c-.06,0-.24.14-.24.14h0s0-.05,0-.06a0,0,0,0,1,0,0,1.13,1.13,0,0,0,.56-.39c-.08-.05-.32.05-.32.05l0-.08s.07,0,.07,0a.74.74,0,0,0,.53-.25.58.58,0,0,0-.29,0s0,0,0,0a.13.13,0,0,1,0-.05h0a.88.88,0,0,0,.64-.15.65.65,0,0,0-.3-.05l0-.07h0a1,1,0,0,0,.66-.05c0-.06-.26-.12-.27-.13v0s.06,0,.06,0a1.16,1.16,0,0,0,.67.12.44.44,0,0,0-.25-.2.5.5,0,0,0,.28-.19.54.54,0,0,0-.33,0c.16-.22.14-.27.14-.27a1,1,0,0,0-.52.33.28.28,0,0,1-.18.09.42.42,0,0,0,.11-.27c-.21,0-.41.37-.41.37S25,17,24.94,17h0a.73.73,0,0,0,.06-.28.8.8,0,0,0-.38.5s-.11.08-.11.08a.7.7,0,0,0,0-.29,1,1,0,0,0-.25.38s-.06.3-.07.31h0a.51.51,0,0,0-.07-.29c-.06,0-.18.41-.16.53a.52.52,0,0,1-.07.3s-.1-.19-.17-.2-.11.23.13.72v0a.4.4,0,0,1,0,.11.58.58,0,0,0-.25-.16s-.06.2.35.59l0,0,.06.12s0,0,0,0a.61.61,0,0,0-.27,0,.94.94,0,0,0,.56.41.06.06,0,0,1,0,0l.1.12s-.24,0-.28.06.07.17.63.18h0s.09.07.09.08-.18,0-.25.13a.73.73,0,0,0,.66,0h0l.07,0a.53.53,0,0,0-.22.18.93.93,0,0,0,.71-.08h0v0a.52.52,0,0,0-.21.22A1.52,1.52,0,0,0,26.34,20.75Z" transform="translate(13 0.33)"/><path class="cls-16" d="M29,28.16a.13.13,0,0,0,.15-.07c.17.11.24,0,.24,0,.11.16.19.05.19.05s.18.1.18.1.14.14.14.14a.14.14,0,0,0,.13.13c-.07.1.07.18.07.18a.26.26,0,0,0,.06.18.27.27,0,0,0,0,.22c-.11.07-.1.3-.1.3a.32.32,0,0,0-.15.23.3.3,0,0,0-.24.18.36.36,0,0,0-.31,0c-.22-.16-.32-.06-.32-.06a.28.28,0,0,0-.26-.13.17.17,0,0,0-.21-.14.14.14,0,0,0-.15-.12c0-.2-.18-.16-.18-.16a.26.26,0,0,0-.19-.2c0-.21-.19-.22-.19-.22a.28.28,0,0,0-.24-.17.45.45,0,0,0-.3-.25.6.6,0,0,0-.47-.29.76.76,0,0,0-.63-.2.71.71,0,0,0-.64-.06.62.62,0,0,0-.62.06.77.77,0,0,0-.6.12.61.61,0,0,0-.49.17.74.74,0,0,0-.47.26c-.15,0-.38.3-.38.3s-.3.19-.3.4a7.81,7.81,0,0,1,2.39,1.28s.14,0,.29-.14a.4.4,0,0,0,.39-.23s.32,0,.39-.16c0,0,.16.08.24,0s.12.1.21,0a.15.15,0,0,0,.2.07.18.18,0,0,0,.21.1.23.23,0,0,0,.22.13.22.22,0,0,0,.25.13s.11.18.26.15.18.21.31.15.21.19.33.12.26.18.39.07.25.14.4,0c0,0,.31.07.39-.13,0,0,.36,0,.36-.26,0,0,.37,0,.34-.38a.47.47,0,0,0,.21-.46s.19-.29.07-.41.08-.23-.05-.33a.23.23,0,0,0-.1-.26.21.21,0,0,0-.1-.24s0-.18-.15-.19a.2.2,0,0,0-.22-.19.25.25,0,0,0-.28-.15.3.3,0,0,0-.31-.06s-.19-.1-.29.05c0,0-.17,0-.23.09a.56.56,0,0,0-.36.73.41.41,0,0,0,.51.2C29.38,28.69,29.24,28.22,29,28.16Z" transform="translate(13 0.33)"/><path class="cls-9" d="M29,28.16s-.28,0-.29.18" transform="translate(13 0.33)"/><path class="cls-9" d="M28.86,27.87a2.74,2.74,0,0,0,.15.29" transform="translate(13 0.33)"/><path class="cls-9" d="M29.09,27.78a2,2,0,0,0,.07.31" transform="translate(13 0.33)"/><path class="cls-9" d="M29.38,27.73a2.83,2.83,0,0,0,0,.35" transform="translate(13 0.33)"/><path class="cls-9" d="M29.69,27.79a1.16,1.16,0,0,0-.1.34" transform="translate(13 0.33)"/><line class="cls-9" x1="42.96" y1="28.27" x2="42.77" y2="28.56"/><path class="cls-9" d="M30.19,28.13s-.24.19-.28.24" transform="translate(13 0.33)"/><path class="cls-9" d="M30.34,28.32a2.63,2.63,0,0,0-.3.18" transform="translate(13 0.33)"/><path class="cls-9" d="M30.44,28.56a2.35,2.35,0,0,0-.33.12" transform="translate(13 0.33)"/><line class="cls-9" x1="43.17" y1="29.18" x2="43.54" y2="29.15"/><path class="cls-9" d="M30.18,29.08a2.85,2.85,0,0,1,.41.07" transform="translate(13 0.33)"/><path class="cls-9" d="M30.08,29.38a1.33,1.33,0,0,1,.44.18" transform="translate(13 0.33)"/><path class="cls-9" d="M29.93,29.61a3.19,3.19,0,0,1,.38.41" transform="translate(13 0.33)"/><path class="cls-9" d="M29.69,29.79a5.12,5.12,0,0,1,.28.61" transform="translate(13 0.33)"/><path class="cls-9" d="M29.38,29.83a6.51,6.51,0,0,1,.23.83" transform="translate(13 0.33)"/><path class="cls-9" d="M29.06,29.77a4.52,4.52,0,0,1,.16,1" transform="translate(13 0.33)"/><path class="cls-9" d="M28.8,29.64a6.68,6.68,0,0,1,0,1.16" transform="translate(13 0.33)"/><path class="cls-9" d="M28.59,29.5a5.78,5.78,0,0,1-.16,1.23" transform="translate(13 0.33)"/><path class="cls-9" d="M28.44,29.38a7.84,7.84,0,0,1-.34,1.23" transform="translate(13 0.33)"/><path class="cls-9" d="M28.26,29.22a10.2,10.2,0,0,1-.46,1.25" transform="translate(13 0.33)"/><path class="cls-9" d="M28.07,29a9.82,9.82,0,0,1-.54,1.29" transform="translate(13 0.33)"/><path class="cls-9" d="M27.88,28.81a11.07,11.07,0,0,1-.6,1.37" transform="translate(13 0.33)"/><path class="cls-9" d="M27.64,28.63a8,8,0,0,1-.58,1.42" transform="translate(13 0.33)"/><path class="cls-9" d="M27.34,28.38A7.4,7.4,0,0,1,26.85,30" transform="translate(13 0.33)"/><path class="cls-9" d="M26.87,28.09a6.45,6.45,0,0,1-.22,1.79" transform="translate(13 0.33)"/><path class="cls-9" d="M26.24,27.89a5.13,5.13,0,0,1,.2,2" transform="translate(13 0.33)"/><path class="cls-9" d="M25.6,27.83a4.65,4.65,0,0,1,.6,2.06" transform="translate(13 0.33)"/><path class="cls-9" d="M25,27.89a3.94,3.94,0,0,1,.83,2.16" transform="translate(13 0.33)"/><path class="cls-9" d="M24.38,28s1.15,1.4,1,2.27" transform="translate(13 0.33)"/><path class="cls-9" d="M23,28.75a5.15,5.15,0,0,1,2.41,1.51" transform="translate(13 0.33)"/><path class="cls-9" d="M23.42,28.44a4.79,4.79,0,0,1,1.37,1.2" transform="translate(13 0.33)"/><path class="cls-9" d="M23.89,28.18a4.83,4.83,0,0,1,1.2,1.72" transform="translate(13 0.33)"/><path class="cls-16" d="M27.89,32a.37.37,0,1,0,0-.73.37.37,0,0,0,0,.73Z" transform="translate(13 0.33)"/><path class="cls-16" d="M27.16,31.53a.36.36,0,0,0,.36-.36.37.37,0,0,0-.36-.37.38.38,0,0,0-.37.37A.37.37,0,0,0,27.16,31.53Z" transform="translate(13 0.33)"/><path class="cls-16" d="M26.38,31.25a.36.36,0,0,0,0-.72.36.36,0,1,0,0,.72Z" transform="translate(13 0.33)"/><path class="cls-16" d="M27.29,32.22a.36.36,0,1,0-.37-.36A.36.36,0,0,0,27.29,32.22Z" transform="translate(13 0.33)"/><path class="cls-16" d="M27.26,31.77a.36.36,0,1,0-.36-.36A.36.36,0,0,0,27.26,31.77Z" transform="translate(13 0.33)"/><path class="cls-16" d="M25.94,31.18a.36.36,0,0,0,.36-.36.36.36,0,1,0-.72,0A.36.36,0,0,0,25.94,31.18Z" transform="translate(13 0.33)"/><path class="cls-16" d="M26.76,31.4a.37.37,0,0,0,.36-.37.36.36,0,0,0-.36-.36.37.37,0,0,0-.37.36A.38.38,0,0,0,26.76,31.4Z" transform="translate(13 0.33)"/><path class="cls-16" d="M26.29,31.44a.37.37,0,0,0,0-.73.37.37,0,1,0,0,.73Z" transform="translate(13 0.33)"/><path class="cls-16" d="M26.78,32.08a.36.36,0,1,0,0-.72.36.36,0,0,0,0,.72Z" transform="translate(13 0.33)"/><path class="cls-16" d="M25.76,31.32a.37.37,0,0,0,.36-.37.36.36,0,0,0-.36-.36.37.37,0,0,0-.37.36A.38.38,0,0,0,25.76,31.32Z" transform="translate(13 0.33)"/><path class="cls-16" d="M26.43,31.68a.37.37,0,0,0,.36-.37.36.36,0,0,0-.36-.36.37.37,0,0,0-.37.36A.38.38,0,0,0,26.43,31.68Z" transform="translate(13 0.33)"/><path class="cls-16" d="M25.22,31.23a.38.38,0,0,0,.37-.37.37.37,0,0,0-.37-.36.36.36,0,0,0-.36.36A.37.37,0,0,0,25.22,31.23Z" transform="translate(13 0.33)"/><path class="cls-16" d="M25.66,31.52a.37.37,0,0,0,.36-.37.36.36,0,0,0-.72,0A.37.37,0,0,0,25.66,31.52Z" transform="translate(13 0.33)"/><path class="cls-16" d="M26.32,32.11a.37.37,0,0,0,.36-.37.36.36,0,0,0-.72,0A.37.37,0,0,0,26.32,32.11Z" transform="translate(13 0.33)"/><path class="cls-16" d="M25.91,31.8a.36.36,0,0,0,.36-.36.37.37,0,0,0-.36-.37.38.38,0,0,0-.37.37A.37.37,0,0,0,25.91,31.8Z" transform="translate(13 0.33)"/><path class="cls-16" d="M24.44,31.91a.36.36,0,1,0,0-.72.36.36,0,0,0,0,.72Z" transform="translate(13 0.33)"/><path class="cls-16" d="M23.46,31.67a.37.37,0,0,0,.37-.37.37.37,0,0,0-.73,0A.37.37,0,0,0,23.46,31.67Z" transform="translate(13 0.33)"/><path class="cls-16" d="M25.6,32.12a.36.36,0,1,0,0-.72.36.36,0,1,0,0,.72Z" transform="translate(13 0.33)"/><path class="cls-16" d="M25,32a.36.36,0,1,0,0-.72A.36.36,0,1,0,25,32Z" transform="translate(13 0.33)"/><path class="cls-16" d="M23.15,31.46a.36.36,0,0,0,0-.72.36.36,0,1,0,0,.72Z" transform="translate(13 0.33)"/><path class="cls-16" d="M24,31.77a.36.36,0,0,0,.36-.36A.37.37,0,0,0,24,31a.38.38,0,0,0-.37.37A.37.37,0,0,0,24,31.77Z" transform="translate(13 0.33)"/><path class="cls-16" d="M24.81,31.64a.36.36,0,1,0-.36-.36A.36.36,0,0,0,24.81,31.64Z" transform="translate(13 0.33)"/><path class="cls-16" d="M24.4,31.69a.36.36,0,1,0,0-.72.36.36,0,1,0,0,.72Z" transform="translate(13 0.33)"/><path class="cls-16" d="M25.21,31.54a.37.37,0,0,0,.37-.36.38.38,0,0,0-.37-.37.37.37,0,0,0-.36.37A.36.36,0,0,0,25.21,31.54Z" transform="translate(13 0.33)"/><path class="cls-16" d="M23.57,31.44a.36.36,0,0,0,.36-.36.36.36,0,1,0-.72,0A.36.36,0,0,0,23.57,31.44Z" transform="translate(13 0.33)"/><path class="cls-16" d="M24.71,31.12a.37.37,0,0,0,.36-.37.36.36,0,0,0-.36-.36.37.37,0,0,0-.37.36A.38.38,0,0,0,24.71,31.12Z" transform="translate(13 0.33)"/><path class="cls-16" d="M24.08,31.19a.38.38,0,0,0,.37-.37.37.37,0,0,0-.37-.36.36.36,0,0,0-.36.36A.37.37,0,0,0,24.08,31.19Z" transform="translate(13 0.33)"/><path class="cls-16" d="M23,31.19a.37.37,0,0,0,.36-.37.36.36,0,0,0-.72,0A.37.37,0,0,0,23,31.19Z" transform="translate(13 0.33)"/><path class="cls-16" d="M23.11,30.63a.36.36,0,0,0,0-.72.36.36,0,1,0,0,.72Z" transform="translate(13 0.33)"/><path class="cls-16" d="M23.66,30.88a.36.36,0,1,0-.36-.36A.36.36,0,0,0,23.66,30.88Z" transform="translate(13 0.33)"/><path class="cls-16" d="M22.68,30.48a.36.36,0,1,0-.37-.36A.36.36,0,0,0,22.68,30.48Z" transform="translate(13 0.33)"/><path class="cls-16" d="M24.25,30.63a.37.37,0,0,0,.36-.37.36.36,0,1,0-.72,0A.37.37,0,0,0,24.25,30.63Z" transform="translate(13 0.33)"/><path class="cls-16" d="M23.69,30.36a.37.37,0,1,0-.36-.36A.36.36,0,0,0,23.69,30.36Z" transform="translate(13 0.33)"/><path class="cls-16" d="M23,30.06a.36.36,0,0,0,.36-.36.36.36,0,1,0-.72,0A.36.36,0,0,0,23,30.06Z" transform="translate(13 0.33)"/><ellipse class="cls-17" cx="46.31" cy="23.68" rx="0.34" ry="0.32"/><path class="cls-17" d="M35.05,22.8a.32.32,0,1,0,0-.63.32.32,0,1,0,0,.63Z" transform="translate(13 0.33)"/><path class="cls-17" d="M35.85,27.09a.32.32,0,1,0,0-.63.32.32,0,1,0,0,.63Z" transform="translate(13 0.33)"/><path class="cls-17" d="M33.68,27a.33.33,0,0,0,.34-.32.34.34,0,0,0-.34-.32.33.33,0,0,0-.34.32A.33.33,0,0,0,33.68,27Z" transform="translate(13 0.33)"/><path class="cls-17" d="M32.84,30.71a.32.32,0,1,0,0-.63.32.32,0,1,0,0,.63Z" transform="translate(13 0.33)"/><path class="cls-17" d="M34.86,31.54a.32.32,0,1,0-.34-.31A.33.33,0,0,0,34.86,31.54Z" transform="translate(13 0.33)"/><line class="cls-18" x1="46.51" y1="23.93" x2="47.06" y2="24.54"/><line class="cls-18" x1="47.92" y1="23.04" x2="47.54" y2="24.38"/><line class="cls-18" x1="46.87" y1="27.2" x2="47.38" y2="27.97"/><line class="cls-18" x1="48.61" y1="27.37" x2="47.7" y2="28.22"/><line class="cls-18" x1="45.97" y1="30.98" x2="46.23" y2="31.67"/><line class="cls-18" x1="47.56" y1="31.6" x2="46" y2="32.13"/><line class="cls-19" x1="33.73" y1="33.75" x2="33.37" y2="33.01"/><polygon class="cls-19" points="32.21 20.93 31.18 22.91 31.66 23.39 32.24 22.72 32.21 20.93"/><polygon class="cls-19" points="33.1 20.8 31.34 23.55 31.73 24.77 32.62 23.71 33.1 20.8"/><polygon class="cls-19" points="31.28 22.14 31.69 24.89 31.28 25.79 30.29 24.73 31.28 22.14"/><polygon class="cls-19" points="30.41 23.42 31.15 26.08 30.67 26.53 30.19 25.86 30.41 23.42"/><path class="cls-19" d="M17.7,26.39c-.11-2.09,2.44-4.26,2.44-4.26A5.72,5.72,0,0,0,20,23.64l-1.67,3.68Z" transform="translate(13 0.33)"/><polygon class="cls-19" points="29.96 25.18 31.5 28.03 31.02 28.51 30.19 27.1 29.96 25.18"/><path class="cls-19" d="M19.5,26.58c-.42-1,.86-3.62.86-3.62s-2.43,3.3-2.14,6l.8-.06Z" transform="translate(13 0.33)"/><polygon class="cls-19" points="29.8 26.62 32.11 29.34 31.6 30.37 30.25 28.99 29.8 26.62"/><path class="cls-19" d="M18.5,30.17C18.25,26.36,20,25.4,20,25.4s-.48,2.11-.06,2.69L19.5,31Z" transform="translate(13 0.33)"/><polygon class="cls-19" points="29.96 28.64 32.81 31.49 32.21 32.61 31.15 31.68 29.96 28.64"/><path class="cls-19" d="M19.53,32.86a8,8,0,0,1,.64-5.54A6.22,6.22,0,0,0,20.33,30l.51,2.85Z" transform="translate(13 0.33)"/><path class="cls-19" d="M17.7,30.93s1,2.09,2,2.47l1.5.32A8.09,8.09,0,0,0,17.7,30.93Z" transform="translate(13 0.33)"/><path class="cls-19" d="M20.36,29s.35,3.75,1.76,4.93-.51.32-.51.32C19.43,33,20.36,29,20.36,29Z" transform="translate(13 0.33)"/><path class="cls-19" d="M18.73,32.73s1.76,2.4,3.52,1.73c-.48-.77-.86-1-1.22-1S18.73,32.73,18.73,32.73Z" transform="translate(13 0.33)"/><path class="cls-19" d="M20.87,30.87s.57,1.06.8,1.38,1,1,1.15,1.25,1,1,1,1l-1.6-.06c-1.25-.9-1.47-3.69-1.47-3.69Z" transform="translate(13 0.33)"/><path class="cls-19" d="M20.1,34s2.74,0,3.11.09,1.44.53,1.63.52.93,0,.93,0l0,.41a6.47,6.47,0,0,1-1.57,0c-.19-.13-.7-.06-1-.06S20.2,34.71,20.1,34Z" transform="translate(13 0.33)"/><line class="cls-19" x1="46.23" y1="31.67" x2="46.46" y2="31.6"/><line class="cls-19" x1="45.61" y1="32.08" x2="44.07" y2="33.44"/><path class="cls-19" d="M34.09,23a3,3,0,0,0-.83-3.23A2.91,2.91,0,0,0,34.09,23Z" transform="translate(13 0.33)"/><path class="cls-19" d="M34.09,23a3.21,3.21,0,0,1-2.91-2C32.59,20.7,34.09,23,34.09,23Z" transform="translate(13 0.33)"/><path class="cls-19" d="M34.76,26.65a4.87,4.87,0,0,0,1.06-3.17A2.63,2.63,0,0,0,34.76,26.65Z" transform="translate(13 0.33)"/><path class="cls-19" d="M33.93,30.49a4,4,0,0,0,2.25-2.6A2.83,2.83,0,0,0,33.93,30.49Z" transform="translate(13 0.33)"/><path class="cls-19" d="M31.48,33.58a3.61,3.61,0,0,0,3.19-1A2.76,2.76,0,0,0,31.48,33.58Z" transform="translate(13 0.33)"/><path class="cls-19" d="M33.52,30.39A3.08,3.08,0,0,1,33,27.06C34.59,27.49,33.52,30.39,33.52,30.39Z" transform="translate(13 0.33)"/><path class="cls-19" d="M34.67,26.58c-2.08-1-2-2.18-2-2.18C34.17,23.86,34.67,26.58,34.67,26.58Z" transform="translate(13 0.33)"/><path class="cls-19" d="M34.64,27.09c1.25-2.56-.52-3.84-.52-3.84S33.2,24.66,34.64,27.09Z" transform="translate(13 0.33)"/><path class="cls-19" d="M34.12,23.25c.32-2.17-2.33-3.58-2.33-3.58S31.6,21.33,34.12,23.25Z" transform="translate(13 0.33)"/><path class="cls-19" d="M31.28,33.4c-.48-1,1-2.5,1-2.5S33.32,33.21,31.28,33.4Z" transform="translate(13 0.33)"/><path class="cls-19" d="M33.63,30.94a4.79,4.79,0,0,0-2.51,2c-.71,1-3.4,1.57-3.4,1.57l1,.35a5,5,0,0,1,1.41-.76,6.83,6.83,0,0,0,1.48-.32A3.77,3.77,0,0,0,33.63,30.94Z" transform="translate(13 0.33)"/><path class="cls-19" d="M33.63,30.94c1.88-2.21,1-4,1-4S32.75,28,33.63,30.94Z" transform="translate(13 0.33)"/><path class="cls-20" d="M23.53,34.2s-.64-.19-.06-1c0,0,.32-.32.57-.29a1.75,1.75,0,0,1,.87.38,3.89,3.89,0,0,0,1.76.83c.44,0,1.66-1.05,1.95-1.05s.77,0,.77,1l-.13.13-1.73.38,2.63.8s-.84.13-.42.87l-3.14-1L23.88,36.7s.23-1-.54-1.09a4,4,0,0,1,2.4-.58l0-.41A5.47,5.47,0,0,1,23.53,34.2Z" transform="translate(13 0.33)"/><path class="cls-21" d="M28.88,33.91c.06-.54-.36-.35-.36-.35l-1,.48v.26Z" transform="translate(13 0.33)"/><path class="cls-21" d="M24.27,33.3a4.9,4.9,0,0,1,1,.71c.14.14,0,.28,0,.29a7.29,7.29,0,0,1-1.35-.36C23.5,33.27,24.27,33.3,24.27,33.3Z" transform="translate(13 0.33)"/><path class="cls-21" d="M25.16,35.32l-1,.42s0,.19.19.19S25.51,35.48,25.16,35.32Z" transform="translate(13 0.33)"/><path class="cls-21" d="M27.6,35.16a8.1,8.1,0,0,0,1.43.51c.13,0,.17-.19.1-.32a8.08,8.08,0,0,0-1.53-.48Z" transform="translate(13 0.33)"/><path class="cls-21" d="M26.25,34.36l0,.51s.38.13.51,0l0-.51S26.35,34.23,26.25,34.36Z" transform="translate(13 0.33)"/><rect class="cls-22" x="0.03" y="0.03" width="78.93" height="53.59"/></g></g></g></svg>