<svg xmlns="http://www.w3.org/2000/svg" viewBox="0 0 52.45 52.45"><defs><style>.cls-1{fill:#ec0302;}.cls-2{fill:#fff;}.cls-3{fill:#0f51ee;}</style></defs><g id="Capa_2" data-name="Capa 2"><g id="Capa_2-2" data-name="Capa 2"><path class="cls-1" d="M47.18,42A26.16,26.16,0,0,1,8.39,45.42,25.74,25.74,0,0,1,5.26,42Z"/><path class="cls-2" d="M51.92,31.47a26.11,26.11,0,0,1-3,7.86A25.54,25.54,0,0,1,47.18,42H5.26a25.45,25.45,0,0,1-1.74-2.63,26.13,26.13,0,0,1-3-7.86Z"/><path class="cls-1" d="M52.45,26.22a26.71,26.71,0,0,1-.53,5.25H.52A26.71,26.71,0,0,1,.52,21h51.4A26.61,26.61,0,0,1,52.45,26.22Z"/><path class="cls-2" d="M51.92,21H.52a26.19,26.19,0,0,1,3-7.87,25.32,25.32,0,0,1,1.74-2.62H47.18a25.41,25.41,0,0,1,1.75,2.62A26.17,26.17,0,0,1,51.92,21Z"/><path class="cls-1" d="M47.18,10.49H5.26A26.45,26.45,0,0,1,8.39,7a26.17,26.17,0,0,1,38.79,3.47Z"/><path class="cls-3" d="M41.62,26.22l-9.07,5.25L14.39,42l-6,3.46A25.74,25.74,0,0,1,5.26,42a25.45,25.45,0,0,1-1.74-2.63,26.13,26.13,0,0,1-3-7.86A26.71,26.71,0,0,1,.52,21a26.19,26.19,0,0,1,3-7.87,25.32,25.32,0,0,1,1.74-2.62A26.45,26.45,0,0,1,8.39,7l6,3.47L32.55,21Z"/><polygon class="cls-2" points="15.16 17.46 17.13 23.52 23.5 23.52 18.34 27.26 20.31 33.32 15.16 29.57 10.01 33.32 11.97 27.26 6.82 23.52 13.19 23.52 15.16 17.46"/></g></g></svg>