<svg xmlns="http://www.w3.org/2000/svg" viewBox="0 0 54.24 54.24"><defs><style>.cls-1{fill:#0c1c8c;}.cls-2{fill:#007c59;}.cls-3{fill:#e23d28;}.cls-4{fill:#fff;}.cls-5{fill:#fcb514;}</style></defs><g id="Capa_2" data-name="Capa 2"><g id="Capa_2-2" data-name="Capa 2"><path class="cls-1" d="M52.69,36.16h-20L13.15,50.37A27.13,27.13,0,0,0,52.69,36.16Z"/><path class="cls-2" d="M10.14,6a27.16,27.16,0,0,0-6.8,8.11l17.91,13-17.93,13a27.23,27.23,0,0,0,6.79,8.11L31.59,32.49H53.7a27.17,27.17,0,0,0,.54-5.37,27.73,27.73,0,0,0-.53-5.35h-22Z"/><path d="M1.81,17.35a27.22,27.22,0,0,0,0,19.52l13.42-9.75Z"/><path class="cls-3" d="M32.7,18.08h20A27.13,27.13,0,0,0,13.15,3.87Z"/><path class="cls-4" d="M10.11,48.24a28.06,28.06,0,0,0,3,2.13L32.7,36.16h20a26.5,26.5,0,0,0,1-3.67H31.59Z"/><path class="cls-4" d="M13.15,3.87a27,27,0,0,0-3,2.1l21.54,15.8h22a25.11,25.11,0,0,0-1-3.69h-20Z"/><path class="cls-5" d="M3.34,14.08a27.06,27.06,0,0,0-1.53,3.27l13.42,9.77L1.81,36.87a26.81,26.81,0,0,0,1.51,3.26l17.93-13Z"/></g></g></svg>