<svg xmlns="http://www.w3.org/2000/svg" xmlns:xlink="http://www.w3.org/1999/xlink" viewBox="0 0 333.74 347.37"><defs><style>.cls-1{opacity:0.09;}.cls-2{fill:#fff1c4;}.cls-3{fill:#fff;}.cls-4{fill:#fed386;}.cls-5{fill:#d18a12;}.cls-6{fill:#eac08c;}.cls-7{fill:#f7f4e0;}.cls-8{fill:url(#linear-gradient);}.cls-9{fill:#b44c20;}.cls-10{fill:url(#linear-gradient-2);}.cls-11{fill:url(#linear-gradient-3);}.cls-12{fill:url(#linear-gradient-4);}.cls-13{fill:url(#linear-gradient-5);}.cls-14{fill:url(#linear-gradient-6);}.cls-15{fill:#e0a376;}.cls-16{fill:url(#linear-gradient-7);}.cls-17{fill:url(#linear-gradient-8);}.cls-18{fill:url(#linear-gradient-9);}.cls-19{fill:url(#linear-gradient-10);}.cls-20{fill:url(#linear-gradient-11);}.cls-21{fill:url(#linear-gradient-12);}</style><linearGradient id="linear-gradient" x1="-6367.26" y1="-5165.83" x2="-6354.33" y2="-5165.83" gradientTransform="translate(-7869.79 -1803.6) rotate(155.67)" gradientUnits="userSpaceOnUse"><stop offset="0" stop-color="#c84626"/><stop offset="0.52" stop-color="#cc5826"/><stop offset="1" stop-color="#b34c20"/></linearGradient><linearGradient id="linear-gradient-2" x1="-6352.68" y1="-5164.21" x2="-6340.9" y2="-5164.21" xlink:href="#linear-gradient"/><linearGradient id="linear-gradient-3" x1="-6340.56" y1="-5161.39" x2="-6327.4" y2="-5159.1" xlink:href="#linear-gradient"/><linearGradient id="linear-gradient-4" x1="-6368" y1="-5104.82" x2="-6331.18" y2="-5104.82" gradientTransform="translate(-7869.79 -1803.6) rotate(155.67)" gradientUnits="userSpaceOnUse"><stop offset="0" stop-color="#d0692a"/><stop offset="0.05" stop-color="#ce6634"/><stop offset="0.14" stop-color="#cc623f"/><stop offset="0.24" stop-color="#cb6143"/><stop offset="0.39" stop-color="#cb5b39"/><stop offset="0.7" stop-color="#ca5229"/><stop offset="0.95" stop-color="#ca4f24"/></linearGradient><linearGradient id="linear-gradient-5" x1="-6350.06" y1="-5145.83" x2="-6307.16" y2="-5143.5" gradientTransform="translate(-7869.79 -1803.6) rotate(155.67)" gradientUnits="userSpaceOnUse"><stop offset="0" stop-color="#d47930"/><stop offset="0.46" stop-color="#e09f4e"/><stop offset="1" stop-color="#d47930"/></linearGradient><linearGradient id="linear-gradient-6" x1="-6388.21" y1="-5137.52" x2="-6379.1" y2="-5147.54" gradientTransform="translate(-7869.79 -1803.6) rotate(155.67)" gradientUnits="userSpaceOnUse"><stop offset="0" stop-color="#d47930"/><stop offset="0.24" stop-color="#e09f4e"/><stop offset="0.51" stop-color="#df9c4b"/><stop offset="0.73" stop-color="#dc9244"/><stop offset="0.93" stop-color="#d68136"/><stop offset="1" stop-color="#d47930"/></linearGradient><linearGradient id="linear-gradient-7" x1="808.62" y1="-3183.08" x2="821.55" y2="-3183.08" gradientTransform="matrix(0.99, 0.12, 0.12, -0.99, -124.25, -2974.22)" xlink:href="#linear-gradient"/><linearGradient id="linear-gradient-8" x1="823.2" y1="-3181.46" x2="834.98" y2="-3181.46" gradientTransform="matrix(0.99, 0.12, 0.12, -0.99, -124.25, -2974.22)" xlink:href="#linear-gradient"/><linearGradient id="linear-gradient-9" x1="835.31" y1="-3178.64" x2="848.48" y2="-3176.35" gradientTransform="matrix(0.99, 0.12, 0.12, -0.99, -124.25, -2974.22)" xlink:href="#linear-gradient"/><linearGradient id="linear-gradient-10" x1="807.87" y1="-3122.07" x2="844.69" y2="-3122.07" gradientTransform="matrix(0.99, 0.12, 0.12, -0.99, -124.25, -2974.22)" xlink:href="#linear-gradient-4"/><linearGradient id="linear-gradient-11" x1="825.82" y1="-3163.08" x2="868.71" y2="-3160.75" gradientTransform="matrix(0.99, 0.12, 0.12, -0.99, -124.25, -2974.22)" xlink:href="#linear-gradient-5"/><linearGradient id="linear-gradient-12" x1="787.66" y1="-3154.77" x2="796.77" y2="-3164.79" gradientTransform="matrix(0.99, 0.12, 0.12, -0.99, -124.25, -2974.22)" xlink:href="#linear-gradient-6"/></defs><g id="Capa_2" data-name="Capa 2"><g id="Capa_2-2" data-name="Capa 2"><ellipse cx="150.37" cy="59.95" rx="6.66" ry="5.83"/><ellipse cx="189.53" cy="62.45" rx="6.66" ry="5.83"/><ellipse class="cls-1" cx="165.78" cy="330.29" rx="118.72" ry="17.08"/><path d="M91.42,316.9c.38-1-.08-12.7,2.69-21.93s6.07-25.48,20-49.31S141,207.15,141,207.15l8.82,11.41s-7.5,6.32-18,20.28-24.3,39.64-28.65,53.15-7.27,28.68-8.59,32.1C94.58,324.09,89,323.18,91.42,316.9Z"/><path d="M253.65,317.63c-.33-1,.82-12.67-1.4-22.05s-4.55-25.79-17.09-50.4-24.53-40-24.53-40L201.15,216s7.11,6.75,16.77,21.31,21.92,41,25.46,54.74,5.57,29.06,6.69,32.55C250.07,324.62,255.71,324.05,253.65,317.63Z"/><path d="M248.64,323.29c-.84,3.56,8.75,3.73,30.43,4.94s40.61-.36,40.67-2.15-14.38-10.21-32.23-11.56-31,5.48-32,5C255.55,319.56,249.06,321.52,248.64,323.29Z"/><path d="M25.54,322.16c-.84,3.57,8.75,3.73,30.43,4.94s40.61-.36,40.67-2.15-14.38-10.21-32.23-11.56-31,5.48-32,5C32.45,318.43,26,320.39,25.54,322.16Z"/><path class="cls-2" d="M157.39,10.66c-14.65,5.81-23.92,21-27,36.41s-.9,31.41,1.26,47C115.81,80.54,91.82,77.4,73,86.41s-31.39,29.68-30.77,50.52c.16,5.48,1.22,11.07,4.19,15.67,11.24,17.45,35.06,18.36,57.67,18a52.31,52.31,0,0,0-15.79,29.75A43,43,0,0,0,87.79,211c1.43,16.31,16,30.44,32.32,31.4,15.61.91,29.75-7.41,40.71-17.88,6.82-6.52,24.54-29.56,19.53-40.24,9.59,20.44,20.83,42.4,41.4,51.72,25.49,11.55,60.69-6.66,62.65-34.58,1.82-26-21.64-46.93-45.42-57.64,11.3-3.3,22.52-8.45,30.1-17.45,30.58-36.29-21.51-70-55.34-43.12C227.34,38,200.32-6.39,157.39,10.66Z"/><path class="cls-3" d="M114.53,163.85c-4.27-60.17,38.51-54.41,62.75-35.58C149.91,120.61,124.43,121.83,114.53,163.85Z"/><path class="cls-3" d="M283.87,205.36a36.41,36.41,0,0,0,.53-3.93c1.15-16.47-7.84-30.89-20.62-42a74.57,74.57,0,0,1-21.13,9.49C259.53,176.55,276.24,189.29,283.87,205.36Z"/><path class="cls-3" d="M76.69,111.56c18.81-9,42.8-5.87,58.66,7.68-2.16-15.61-4.2-29.16-1.14-44.61s12.33-30.6,27-36.41c27.18-10.79,47.91,2.06,56,24.42,1.43-36.87-23.5-66.41-59.83-52-14.65,5.81-23.92,21-27,36.41s-.9,31.41,1.26,47C115.81,80.54,91.82,77.4,73,86.41s-31.39,29.68-30.77,50.52c.16,5.48,1.22,11.07,4.19,15.67a1.53,1.53,0,0,0,.11.16C49.24,135.3,60.7,119.22,76.69,111.56Z"/><path class="cls-3" d="M217.42,108.38c20.56-16.33,47.85-10.26,59.23,5.15,10-28.36-26.83-50.38-56-34.85A79.59,79.59,0,0,1,217.42,108.38Z"/><path class="cls-4" d="M107.47,146.33c-22,.37-45.23-.52-56.19-17.52-2.89-4.48-3.92-9.94-4.08-15.27,0-.11,0-.22,0-.34a53.58,53.58,0,0,0-5,23.73c.16,5.48,1.22,11.07,4.19,15.67,9.43,14.63,27.7,17.63,46.69,18A50.74,50.74,0,0,1,107.47,146.33Z"/><path class="cls-4" d="M224.83,130.21c7,4.64,10.53,8.47,16.31,14.93,3.29-1.63,14.56-5.64,17.36-8,12.52-10.81,18.79-25.66,15.21-35.92a78.61,78.61,0,0,1-17.23,16.89C247.32,125,236.21,128.78,224.83,130.21Z"/><path class="cls-4" d="M222.1,210.08c-20-9.08-31-30.48-40.33-50.4-.35,10.06-12.9,32.36-19,39.21-12.25,13.68-24.45,18.31-39.65,17.42S94.39,202.92,91.9,188a53.86,53.86,0,0,0-3.59,12.31A43,43,0,0,0,87.79,211c1.43,16.31,16,30.44,32.32,31.4,15.61.91,29.75-7.41,40.71-17.88,6.82-6.52,24.54-29.56,19.53-40.24,9.59,20.44,20.83,42.4,41.4,51.72,25.49,11.55,60.69-6.66,62.65-34.58a41.22,41.22,0,0,0-2.65-17.55C274.79,206.7,244.58,220.26,222.1,210.08Z"/><path class="cls-5" d="M160,17.21c-13.39,4.47-22.08,17.25-26,30.59a83.31,83.31,0,0,0-2.86,22.71,200.89,200.89,0,0,0,1.75,23.41,1.2,1.2,0,0,1-1,1.37,1.23,1.23,0,0,1-.93-.29,44.83,44.83,0,0,0-22.46-10.53C76,78.92,45,106.19,49.09,138.91c2.9,27.4,30.9,36,54.71,30.48a1.24,1.24,0,0,1,1.15,2.09A59,59,0,0,0,97.27,180c-4.38,6-7.4,13.3-7.59,20.71-.21,10,4.1,20.4,11.53,26.85,15.68,12.93,40.7,5.35,55.08-6.44A68.24,68.24,0,0,0,179.15,184a1.22,1.22,0,0,1,2.33-.19,45.43,45.43,0,0,0,3.11,6.39c9.19,16.68,21,34.3,39.38,41.06,12.63,4.52,27.19,1.4,38.07-6,14.4-9.64,19.53-25.47,13.12-41.66-6.55-16.39-21.86-29.2-36.66-38.68a1.17,1.17,0,0,1-.61-1.67,1.14,1.14,0,0,1,.76-.53,20.26,20.26,0,0,0,4.22-1.39c9-3.86,17.87-10.22,22.87-18.47,5.39-8.63,8.14-18.2,4.11-27.49-5.62-13.48-24.61-23.11-40-19a35.8,35.8,0,0,0-15.3,7.88,1.21,1.21,0,0,1-1.94-1.26c4.11-13.77,4.27-28.89-.87-42.31-4.37-12.22-14.86-23.82-27.33-26.15-8.18-1.78-16.54.29-24.4,2.79ZM154.78,4.1A44.61,44.61,0,0,1,187.9,2.41c21.29,7.36,31,30.9,31.15,51.63a95.91,95.91,0,0,1-4.15,29.53l-2-1.26a51.89,51.89,0,0,1,15.84-9.47c18.42-7.18,43-1.93,52.61,17,7.08,13.45,2.25,29.41-8.21,39.14-7.15,7.06-15.91,10.81-25.11,13.49-2.91.91-5.93,1.39-8.77,2.5,0,0,.15-2.22.16-2.2,26.21,7.68,53.32,29.79,51.59,59.76-1.57,25.62-27.27,44.21-51.85,43.35-21.72-.22-38.12-17-47.69-35-2.33-4.27-4.43-8.61-6.42-13s-3.56-8.89-5.89-13.07l2.39-.42a53,53,0,0,1-.77,12.1c-4.21,25.2-25.31,46.33-50.49,50.92-13.33,2.6-28.94.41-38.7-10-12.44-13.23-12.18-34.27-3.27-49.16a86.22,86.22,0,0,1,14.89-18.59l1.15,2.09A81.19,81.19,0,0,1,91.48,174c-18.35,1.93-38.81-2.29-49.19-19.15a47.59,47.59,0,0,1-5.75-13.4c-1.25-4.82-2.11-9.89-1.45-14.85C38,107.35,52.18,91.5,69.24,83.45c12.4-5.9,27.16-6.24,40-2.4a66,66,0,0,1,23.24,12.12l-2,1.08c-1.22-7.78-2.55-15.57-3.41-23.52a106.4,106.4,0,0,1-.22-24.33c1.93-17.09,11.42-34.95,27.93-42.3Z"/><path d="M256.8,108.85a22.94,22.94,0,0,1-1.35,3.19l.42-.85a33.31,33.31,0,0,1-4.75,7.17l.61-.71a29.07,29.07,0,0,1-5.45,4.88l.77-.53a26.73,26.73,0,0,1-6,3.06l.89-.32a28.59,28.59,0,0,1-7.31,1.53l1-.08a35.22,35.22,0,0,1-6.33-.12,3.68,3.68,0,0,0-3.86,3.43,3.73,3.73,0,0,0,3.43,3.85,34.13,34.13,0,0,0,13.34-1.06A31.24,31.24,0,0,0,252.53,127a35.71,35.71,0,0,0,10-13,20.75,20.75,0,0,0,1.13-2.76,3.64,3.64,0,1,0-6.9-2.35Z"/><path d="M317.69,282.5c2.92-3.17,4.84-8.47,5.72-15.78,2.35-19.49-2.39-43.15-15.36-76.72-10.68-27.65-32.37-60.86-55.44-70.3l-4.14,9a191.44,191.44,0,0,1,16.76,15.82c13.07,13.89,21.91,27.34,26.27,40,10.24,29.64,10.93,47,10.95,47.76l0,.67-.31.58c-.1.2-10,19.57-11.49,32.18-1.42,12,5.68,18.82,12.88,20.09,3.79.67,8.64,1.06,12.49-1.8A11.31,11.31,0,0,0,317.69,282.5Z"/><path d="M64,128.06,61,123.28c-10.66,9.47-21.38,19.38-29.25,35.64-19.86,41-18.64,67.25-16.93,83.66,2.68,25.55,10.27,34.73,14.55,37.94,5,3.74,13.72-.2,17-3.36,2.2-2.12,6.75-8.24,1.53-19.09s-16.42-22.84-16.53-23l-.7-.75-.17-1c-.24-1.39-3-34.9,6.45-58.36C44.6,155.82,54.27,139.59,64,128.06Z"/><path d="M68.6,143.16A21.8,21.8,0,0,1,67.1,140l.36.87a33.16,33.16,0,0,1-2.21-8.3l.12.92a28.92,28.92,0,0,1,0-7.32l-.12.93a27.09,27.09,0,0,1,1.69-6.52l-.35.88a28.68,28.68,0,0,1,3.7-6.48l-.59.78A35.07,35.07,0,0,1,74,111.14,3.67,3.67,0,0,0,74,106a3.72,3.72,0,0,0-5.15,0,34.28,34.28,0,0,0-8.06,10.68A31.34,31.34,0,0,0,57.88,128a35.69,35.69,0,0,0,3.06,16.13,22.2,22.2,0,0,0,1.32,2.68,3.65,3.65,0,0,0,6.34-3.61Z"/><path d="M139.89,52.63s8.88,1.48,15.29,1,7.39-.5,7.89.49-1.48,1.48-6.41,2-11.35-.49-14.3-1S138.41,52.63,139.89,52.63Z"/><path d="M140.88,65.94a56.49,56.49,0,0,1,13.31-2c6.41,0,5.92,1,5.92,1.48s0,1-3,1-10.36,0-12.82.49S140.38,67.92,140.88,65.94Z"/><path d="M178.05,54.12s8.77,2,15.2,1.94,7.41,0,7.84,1-1.57,1.38-6.52,1.57-11.29-1.21-14.21-1.88S176.57,54,178.05,54.12Z"/><path d="M179.31,67.17a66.1,66.1,0,0,1,15.82.13c7.44,1.17,6.69,2.22,6.6,2.8s-.18,1.14-3.62.6-12-1.88-15-1.76S178.37,69.37,179.31,67.17Z"/><path d="M159.56,90.17c3.24,3.48,8.33,6.09,13.15,5.49,6.54-.81,11.68-5.57,14-11.57.69-1.78-2.17-2.55-2.85-.79-1.87,4.89-6.42,9.09-11.82,9.47-3.84.28-7.79-1.93-10.36-4.69-1.3-1.4-3.39.7-2.09,2.09Z"/><ellipse cx="152.04" cy="59.95" rx="4.17" ry="5.83"/><ellipse cx="189.53" cy="62.45" rx="4.17" ry="5.83"/><path class="cls-3" d="M36.16,299.27c-.4-5-3.49-13.06-5.1-17.8,2.55,6.13,9.07,19.44,10.69,23.87s13-.93,11.93-4.58c-1.44-5-7.8-18.1-10.71-24.71h0c2,4,10.29,20.94,12.77,25.69,2.21,4.21,13.21-1.5,12-5.1-1.47-4.32-7.54-15-11.5-21.71,4.28,4.56,11.12,11.8,13.31,13.92,3.28,3.17,12-6.4,9.39-9.49C77,277,64,266,58.45,260.83h0c2.65-1.67,9,1.17,12,1.72,6,1.08,10.3-9.2,4-12.82-5.23-3-30.24-14.22-33.84-13.62l-2-2.52c-.74-.77-.06-1.22,0-1.43.5-2-4.44-14.62-7-15.49S.44,227.1.06,230.92s5.51,13.4,7,15.49c.15.21,1.64,0,2.55-.23l1.57,3.48c-5.72,4.08,7.69,34.64,7.69,34.64s4.3,12.18,5.43,18.17C25.2,307.13,36.56,304.3,36.16,299.27Z"/><path class="cls-6" d="M36.35,299.69c-.15-4.93-3-14-4.59-18.72,2.52,6.06,8.29,19.9,10.25,24.12s12.85-.77,11.81-4.38c-1.41-4.94-7.33-18.6-10.21-25.13h0c2,4,10.18,20.69,12.63,25.38,2.19,4.16,13.14-1.52,11.94-5.08-1.46-4.27-7.46-14.78-11.38-21.45,4.25,4.5,11,11.64,13.2,13.74,3.25,3.13,11.4-5.8,8.83-8.85-2-2.36-14.33-13.79-19.82-18.84h0c2.63-1.66,9.57,2.4,12.57,1.73,6-1.33,7.6-10.17,2.09-12.5s-30-13.39-33.62-12.79l-1.71-3.8c.59-.42.94-.74,1-1,.5-2-4.38-14.46-6.93-15.31S1.46,227.26,1.08,231s4.5,13.84,6,15.37c.18.19,1.52-.79,2.42-1l1.76,4.37c-3.92,3.71,8.39,34,8.39,34s4.33,12,5,17.95C25.22,307,36.47,303.44,36.35,299.69Z"/><path class="cls-7" d="M36.16,299.27c-.14-4.92-3-14-4.55-18.63,2.5,6,8.24,19.78,10.19,24s12.83-.8,11.81-4.39c-1.4-4.91-7.28-18.49-10.14-25h0c2,4,10.12,20.57,12.57,25.23,2.17,4.14,13.13-1.54,11.93-5.08-1.44-4.25-7.42-14.69-11.32-21.32,4.23,4.47,11,11.56,13.16,13.64,3.24,3.11,11.4-5.8,8.84-8.82-2-2.34-14.29-13.69-19.76-18.71h0c2.64-1.65,8.93,1.11,12,1.64,5.94,1,8-9.69,2.71-12.39C65.84,245.49,46,237.88,40,236.78c-6.75-1.24-24.92,7.22-28.84,12.88s8.31,33.83,8.31,33.83,3.85,12,4.95,17.85C25.31,305.93,36.27,303,36.16,299.27Z"/><path class="cls-8" d="M41.62,269.67l8.93-5s12,21.88,15.91,28.61c1.72,2.94-8.83,8.95-10.81,5.17C53.11,293.56,41.62,269.67,41.62,269.67Z"/><path class="cls-9" d="M29.08,274.36c-2.23-2.13,10.19-4.61,10.19-4.61s11.44,22.71,13.15,28.73c.94,3.29-8.75,8-10.56,4.15C39.55,297.64,31.31,276.49,29.08,274.36Z"/><path class="cls-10" d="M29,274.11c-2.24-2.13,10.19-4.61,10.19-4.61s11.43,22.71,13.15,28.73c.94,3.29-8.75,8-10.56,4.15C39.44,297.39,31.2,276.24,29,274.11Z"/><path class="cls-11" d="M18.6,277.71c-.88-2.45,9-1.93,9.67-3s6.64,16.5,6.84,23c.12,3.56-8.27,6.43-9.75,2.22C23.29,294,19,278.89,18.6,277.71Z"/><path class="cls-12" d="M.06,230.92c.76-2.95,30-14.46,32.38-14.07s7.62,13.69,6.93,15.31S12.24,244.7,7.07,246.41C5.53,246.92-.7,233.88.06,230.92Z"/><path class="cls-13" d="M49.4,267.48s1.25-.77,3.8.77S65.93,283,69,286s10.41-4.92,7.94-7.84S56.62,260,53.66,256.65s-4.93-1.11-8.71-4.58-7.22-11.95-8.87-12.57C33,238.31,15.94,243,12.27,250.27c-1.09,2.14,3.36,22.92,6.33,27.44C20.86,281.16,49.4,267.48,49.4,267.48Z"/><path class="cls-9" d="M49.36,249.49l6-5.58s3.49,3,2.62,4.41-6.08,4-6.08,4Z"/><path class="cls-9" d="M44,245.52l4.31-4.87s7.48,2,6,3.32l-5.91,5Z"/><path class="cls-9" d="M39.22,242.47l3-3.84s6.61.48,5.19,1.92l-4.27,4.32Z"/><path class="cls-9" d="M53.2,253.14s4.23-3.49,5.5-3.86,3,4.29,3,4.29-4.05,3.24-5.26,3.2S53.2,253.14,53.2,253.14Z"/><path class="cls-14" d="M75.18,257.53c1.54-1.46,1.49-4.71-.8-6.93-3-2.89-15.54-6.75-17.37-7.41s6.22,8.47,8.61,14.63C66.92,258.93,73.65,259,75.18,257.53Z"/><path class="cls-15" d="M73.35,278.09a1.75,1.75,0,0,1-.07.32,4.48,4.48,0,0,1-.29.8,4.66,4.66,0,0,1-.25.5c-.1.18-.22.36-.34.54l-.2.27a1.78,1.78,0,0,1-.21.27,4.69,4.69,0,0,1-.48.52,5.82,5.82,0,0,1-.53.46,2.47,2.47,0,0,1-.27.21l-.28.19-.28.17-.28.14a3.75,3.75,0,0,1-.53.22l-.46.15-.37.06-.32,0,.25-.2.3-.21.36-.28c.14-.09.27-.21.42-.33l.23-.18.22-.2.24-.2.23-.21c.16-.14.32-.3.47-.45s.3-.31.46-.46l.44-.45c.13-.16.28-.3.4-.44l.37-.4.55-.61.16-.17Z"/><path class="cls-15" d="M63.66,293.34s-.08.09-.22.22-.35.31-.61.51l-.44.32-.51.32-.56.3-.29.15-.3.14-.62.25a4.69,4.69,0,0,1-.6.2l-.58.16-.27.07-.26,0c-.33.05-.61.07-.8.09l-.3,0,.27-.14c.18-.08.43-.19.74-.3l.23-.1.25-.11.53-.23c.19-.08.39-.15.58-.24l.58-.26.59-.26.57-.25.53-.25.48-.21.41-.18.31-.14Z"/><path class="cls-15" d="M50.16,298.44a2.46,2.46,0,0,1-.22.21,6.56,6.56,0,0,1-.61.52c-.13.1-.28.21-.44.31s-.33.22-.51.32-.36.21-.56.31l-.29.15-.3.14-.62.25c-.2.08-.4.14-.6.2l-.58.16-.27.06-.26,0-.8.1h-.3l.27-.13.74-.31.23-.09.25-.11.53-.23c.19-.08.39-.15.58-.24l.58-.26.59-.26.57-.26.53-.24.48-.21.41-.19.32-.14Z"/><path class="cls-15" d="M48.11,293.91a2.09,2.09,0,0,1-.21.22,5.72,5.72,0,0,1-.62.52l-.44.31c-.15.1-.32.22-.5.32l-.56.31-.29.15-.31.13-.61.25a4.9,4.9,0,0,1-.61.21l-.58.15-.27.07-.25,0c-.33.05-.61.08-.8.09l-.31,0,.28-.13c.18-.08.43-.2.73-.31l.24-.09.24-.12.54-.22c.19-.08.38-.15.57-.25l.59-.26a6,6,0,0,0,.58-.26l.57-.25.53-.24.48-.22.41-.18.32-.14Z"/><path class="cls-15" d="M46.06,289.37a1.77,1.77,0,0,1-.22.22,6.56,6.56,0,0,1-.61.52l-.44.31c-.16.1-.32.22-.5.32l-.57.31-.29.15-.3.13-.61.25a4.9,4.9,0,0,1-.61.21l-.58.15-.27.07-.26,0c-.33.05-.6.08-.8.09l-.3,0L40,292a5.68,5.68,0,0,1,.73-.31l.23-.09.25-.12.54-.23.57-.24.58-.26a6.21,6.21,0,0,0,.59-.26l.57-.25.53-.24.48-.22.41-.18.32-.14Z"/><path class="cls-15" d="M44.68,284.56a2.46,2.46,0,0,1-.22.21,6.56,6.56,0,0,1-.61.52c-.13.1-.28.21-.44.31s-.33.22-.51.32-.36.21-.56.31l-.29.15-.3.14-.62.25c-.2.08-.4.14-.6.2l-.58.16-.27.06-.26,0-.8.1h-.3l.27-.13.74-.31.23-.09.25-.11c.17-.08.35-.16.54-.23l.57-.24.58-.26.59-.26.57-.26.53-.24.48-.21.41-.19.32-.14Z"/><path class="cls-15" d="M41.05,279.77s-.07.08-.21.21a6.91,6.91,0,0,1-.62.52,3.8,3.8,0,0,1-.44.31l-.5.33-.56.3-.3.15-.3.14-.61.25c-.2.08-.41.14-.61.2l-.58.16-.27.07-.25,0-.8.1h-.31l.28-.13.73-.31.24-.09.24-.11.54-.23.57-.24.59-.26.58-.26.57-.25.53-.25.48-.21.41-.18.32-.14Z"/><path class="cls-15" d="M39.09,275.42l-.22.22a7.4,7.4,0,0,1-.62.51,4.73,4.73,0,0,1-.43.31l-.51.33-.56.3-.29.15-.31.14-.61.25a4.82,4.82,0,0,1-.61.2l-.57.16-.27.07-.26,0c-.33,0-.61.07-.8.09l-.3,0a2,2,0,0,1,.27-.14c.18-.08.43-.19.73-.3l.24-.1.25-.11.53-.23c.19-.08.38-.15.57-.24l.59-.26.59-.26.57-.25.53-.25.48-.21.41-.18.31-.14Z"/><path class="cls-15" d="M33.26,296.83A2.67,2.67,0,0,1,33,297a5,5,0,0,1-.7.39l-.48.23-.56.22-.61.19-.32.1-.32.07c-.22.05-.43.1-.65.13a4.78,4.78,0,0,1-.63.09l-.6.05h-.54c-.33,0-.61,0-.8-.06l-.3,0,.29-.08.78-.16.25-.05.26-.06.57-.13c.2,0,.41-.07.61-.13l.62-.14c.22,0,.42-.1.63-.15l.61-.14.56-.14.51-.12.44-.1.34-.08Z"/><path class="cls-15" d="M32,291a2,2,0,0,1-.25.18c-.17.1-.41.24-.71.39a4.3,4.3,0,0,1-.48.22c-.18.08-.36.16-.56.23l-.61.19-.31.1-.33.07-.64.13a4.92,4.92,0,0,1-.64.09l-.6,0-.27,0h-.26c-.34,0-.61,0-.81-.06l-.3,0,.3-.08c.19,0,.45-.11.77-.16l.25,0,.27-.06.57-.13c.19,0,.4-.07.6-.13l.63-.14c.21,0,.42-.1.62-.15l.61-.14.56-.14.52-.12c.16,0,.3-.08.43-.1l.34-.08Z"/><path class="cls-15" d="M30,283.93l-.26.18c-.16.1-.4.24-.7.39-.15.08-.31.15-.48.22l-.56.22-.61.2-.32.09-.32.08-.65.13a4.55,4.55,0,0,1-.63.09l-.6,0-.28,0h-.26c-.33,0-.61,0-.8-.06l-.3,0,.29-.08c.19,0,.46-.11.78-.16l.25-.05.26-.06.57-.13.61-.13.62-.15.63-.14.61-.14.56-.14.51-.12a3,3,0,0,1,.44-.1l.34-.08Z"/><path class="cls-15" d="M28.67,278.44a1.8,1.8,0,0,1-.25.17,5,5,0,0,1-.7.39l-.49.23-.55.22-.61.19-.32.1-.32.07-.65.14c-.21,0-.43.06-.63.08l-.6.05H23c-.33,0-.61,0-.8-.06l-.3,0,.29-.08.78-.16.25-.05.26-.06.57-.13c.2,0,.4-.07.61-.13l.62-.14.63-.15.6-.14.57-.14.51-.12.44-.1.34-.08Z"/><path class="cls-15" d="M60.44,287.94l-.22.22c-.14.13-.35.31-.61.51a3.8,3.8,0,0,1-.44.31l-.51.33-.56.3-.29.15-.3.14-.62.25c-.2.08-.4.14-.6.2l-.58.16-.27.07-.26,0c-.33.05-.61.07-.8.09h-.3l.27-.13.74-.31.23-.09.25-.11.53-.23c.19-.08.39-.15.58-.24l.58-.26.59-.26c.19-.09.38-.18.57-.25l.53-.25.48-.21.41-.18.32-.14Z"/><path class="cls-15" d="M56.09,282.45l-.22.22a7.17,7.17,0,0,1-.62.52l-.43.31-.51.32-.56.3-.29.16-.31.13-.61.25a3.84,3.84,0,0,1-.6.2l-.58.16-.27.07-.26,0c-.33.05-.61.07-.8.09l-.3,0,.27-.14c.18-.08.43-.19.73-.3l.24-.09.25-.12.53-.23.58-.24.58-.26.59-.26.57-.25.53-.25.48-.21.41-.18.31-.14Z"/><path class="cls-15" d="M53,275.63a2.46,2.46,0,0,1-.22.21,6.56,6.56,0,0,1-.61.52c-.13.1-.28.21-.44.31l-.5.32c-.18.11-.37.21-.57.31l-.29.15-.3.14-.61.25c-.2.08-.41.14-.61.2l-.58.16-.27.06-.26,0-.8.1h-.3l.28-.13c.17-.08.42-.19.73-.31l.23-.09.25-.11c.17-.08.35-.16.54-.23l.57-.24.58-.26c.21-.08.4-.17.59-.26l.57-.26.53-.24.48-.21.41-.19.32-.14Z"/><path class="cls-15" d="M51.34,270.08s-.07.08-.21.21a6.91,6.91,0,0,1-.62.52,3.8,3.8,0,0,1-.44.31l-.5.33-.56.3-.3.15-.3.14-.61.25c-.2.08-.41.14-.61.2l-.58.16-.27.07-.25,0-.8.1H45l.28-.13.73-.31.24-.09.24-.11L47,272l.57-.24.59-.26.58-.26.57-.26.53-.24.48-.21.41-.18.32-.14Z"/><path class="cls-15" d="M68.8,273.55s0,.13,0,.34a3.43,3.43,0,0,1,0,.4,4,4,0,0,1-.12.5,3.6,3.6,0,0,1-.22.56,5.83,5.83,0,0,1-.32.6c-.06.1-.13.19-.2.29a1.94,1.94,0,0,1-.21.29l-.23.28c-.08.1-.17.18-.25.28s-.35.34-.53.5l-.28.23a2.92,2.92,0,0,1-.28.21c-.19.13-.37.25-.56.36l-.27.15-.26.12a3.56,3.56,0,0,1-.47.19l-.37.11a2.48,2.48,0,0,1-.33.06l.25-.22c.09-.06.18-.15.29-.24l.36-.32.42-.38.45-.42c.16-.15.31-.31.48-.46s.32-.32.47-.49.32-.33.47-.5.29-.33.43-.49.27-.32.39-.48.22-.3.32-.44.18-.28.25-.4.13-.22.18-.32Z"/><path class="cls-15" d="M64.64,269.21a1.75,1.75,0,0,1-.07.32,4.94,4.94,0,0,1-.3.79,7.08,7.08,0,0,1-.59,1,6.42,6.42,0,0,1-.41.54c-.14.18-.31.35-.47.52a5.93,5.93,0,0,1-.53.47l-.27.21-.28.19c-.2.11-.38.23-.57.31a3.63,3.63,0,0,1-.53.21,3.78,3.78,0,0,1-.47.13,3.19,3.19,0,0,1-.37.05l-.32,0,.26-.18.3-.19.37-.27.21-.16.21-.16c.15-.11.3-.25.45-.38s.31-.28.47-.42.31-.3.46-.44l.46-.47c.14-.16.3-.3.44-.46l.4-.44.37-.39c.22-.25.42-.46.56-.61l.16-.17Z"/><path class="cls-15" d="M61.31,265.48s0,.11-.1.3-.19.44-.34.74a8,8,0,0,1-.61,1,6.28,6.28,0,0,1-.38.52c-.14.18-.29.35-.44.51s-.31.33-.47.48-.33.3-.5.44-.33.25-.49.36-.33.2-.48.28-.31.14-.43.2l-.19.07-.16,0-.31.07a2.71,2.71,0,0,1,.23-.22l.11-.11.14-.13c.09-.1.2-.19.31-.32l.36-.38c.12-.14.26-.27.39-.42l.85-.94.44-.47.43-.46c.29-.29.56-.57.8-.8s.45-.41.6-.54Z"/><path class="cls-3" d="M319.06,295.13c-1.1-4.87-.56-13.51-.44-18.51-.6,6.61-2.87,21.26-3.09,26s-12.66,3-12.75-.82c-.11-5.19,2.06-19.6,2.86-26.77h0c-.69,4.43-3.59,23.05-4.55,28.32-.85,4.68-13.06,2.5-13-1.29.12-4.57,2.74-16.53,4.51-24.15-2.73,5.62-7.1,14.57-8.56,17.25-2.18,4-13.35-2.54-11.79-6.26,1.2-2.88,10.32-17.26,14.07-23.8h0c-3-.8-8.24,3.8-11,5.23-5.39,2.82-12.57-5.71-7.61-11.05,4.11-4.42,24.63-22.58,28.25-23.08l1.2-3c.48-1-.3-1.18-.41-1.36-1.09-1.81-.12-15.28,2.07-16.87s32.82.68,34.32,4.22-1.26,14.42-2.07,16.87c-.08.25-1.58.47-2.5.53l-.47,3.79c6.68,2.2,3,35.36,3,35.36s-.47,12.91.23,19C331.87,299.37,320.17,300.05,319.06,295.13Z"/><path class="cls-6" d="M319,295.59c-1.33-4.75-1.31-14.3-1.19-19.24-.6,6.53-2,21.46-2.6,26.08s-12.49,3.09-12.58-.66c-.12-5.14,1.46-19.94,2.26-27h0c-.68,4.39-3.55,22.79-4.5,28-.84,4.62-13,2.46-12.9-1.29.11-4.52,2.71-16.34,4.47-23.87-2.72,5.56-7.06,14.4-8.51,17.05-2.17,3.95-12.62-2.15-11.07-5.82,1.2-2.84,9.58-17.43,13.31-23.89h0c-3-.8-8.42,5.14-11.48,5.4-6.13.52-10.29-7.45-5.72-11.32s24.68-21.73,28.28-22.22l.51-4.13A2.72,2.72,0,0,1,296,232c-1.09-1.79-.13-15.1,2.05-16.67s32.68.7,34.17,4.2-.18,14.55-1.14,16.46c-.12.23-1.69-.31-2.61-.24l-.38,4.7c4.85,2.37,2.12,35,2.12,35s-.57,12.71.58,18.63C331.8,299.22,320,299.2,319,295.59Z"/><path class="cls-7" d="M319.06,295.13c-1.33-4.73-1.32-14.22-1.21-19.14-.59,6.5-2,21.34-2.57,25.93s-12.5,3.06-12.59-.67c-.12-5.1,1.45-19.82,2.24-26.87h0c-.67,4.36-3.53,22.65-4.48,27.83-.84,4.59-13,2.43-12.9-1.3.11-4.48,2.7-16.24,4.46-23.72-2.72,5.52-7.05,14.31-8.5,16.94-2.17,3.93-12.62-2.14-11.07-5.79,1.2-2.83,9.56-17.32,13.29-23.74h0c-3-.8-8.2,3.71-10.93,5.12-5.36,2.76-10.55-6.85-6.28-11,6.23-6.07,22.91-19.26,28.27-22.08,6.08-3.19,25.95-.53,31.37,3.7s2.14,34.77,2.14,34.77-.11,12.57.59,18.52C331.4,298.26,320.07,298.72,319.06,295.13Z"/><path class="cls-16" d="M305,268.5l-10-2.15s-4.92,24.46-6.67,32c-.77,3.32,11.09,5.92,11.86,1.72C301.18,294.73,305,268.5,305,268.5Z"/><path class="cls-9" d="M318.4,269.24c1.5-2.69-11.1-1.36-11.1-1.36s-4.15,25.09-4,31.34c.08,3.42,10.75,5.07,11.32.82C315.34,294.58,316.9,271.94,318.4,269.24Z"/><path class="cls-17" d="M318.43,269c1.5-2.7-11.1-1.36-11.1-1.36s-4.15,25.08-4,31.34c.09,3.42,10.76,5.07,11.32.81C315.37,294.31,316.93,271.66,318.43,269Z"/><path class="cls-18" d="M329.41,269.31c.1-2.59-9.16.84-10.13,0s-1.42,17.73.32,24c.95,3.43,9.81,3.67,10-.78C329.79,286.29,329.35,270.57,329.41,269.31Z"/><path class="cls-19" d="M333.16,219.14c-1.6-2.6-33-4.86-35.1-3.79S294.87,230.68,296,232s29.64,3.89,35.08,4C332.71,236,334.77,221.73,333.16,219.14Z"/><path class="cls-20" d="M297,268.73s-1.42-.37-3.4,1.86-7.76,17.83-9.82,21.64-11.41-1.6-9.92-5.12,14-23.41,15.85-27.45,4.38-2.53,6.95-7,3.34-13.55,4.72-14.64c2.64-2.07,20.27-2.66,25.95,3.19,1.66,1.72,3.62,22.88,2.13,28.07C328.27,273.28,297,268.73,297,268.73Z"/><path class="cls-9" d="M291.63,251.54,284.2,248s-2.45,3.85-1.19,5,7,2,7,2Z"/><path class="cls-9" d="M295.58,246.15,290,242.79s-6.54,4.15-4.69,4.93l7.13,3Z"/><path class="cls-9" d="M299.22,241.82l-4-2.77s-6.16,2.43-4.38,3.38l5.37,2.85Z"/><path class="cls-9" d="M289.05,256.17s-5.07-2.08-6.39-2-1.6,5-1.6,5,4.83,1.88,6,1.49S289.05,256.17,289.05,256.17Z"/><path class="cls-21" d="M269.38,266.91c-1.9-.94-2.82-4.05-1.3-6.85,2-3.64,12.83-11.08,14.37-12.26s-3.41,9.95-3.86,16.54C277.68,265.78,271.27,267.85,269.38,266.91Z"/><path class="cls-15" d="M277.25,286a3,3,0,0,0,.16.29,5.68,5.68,0,0,0,.51.67c.12.13.25.27.4.41s.31.27.48.41.18.13.27.2a2.75,2.75,0,0,0,.28.19c.2.12.4.25.61.35a4.76,4.76,0,0,0,.65.29l.32.12.33.09.31.08.31.05a4,4,0,0,0,.57.06h.49l.37-.05.31-.06-.3-.11-.34-.11-.43-.16c-.16,0-.33-.12-.5-.19l-.27-.11-.27-.12-.29-.12-.29-.14-.58-.28-.57-.3-.56-.31-.51-.3-.47-.27-.71-.42-.21-.12Z"/><path class="cls-15" d="M291,297.66l.28.14a5.93,5.93,0,0,0,.74.31,4.35,4.35,0,0,0,.51.17l.58.16.62.12.33.06.33,0,.66,0a4.56,4.56,0,0,0,.64,0l.6,0,.27,0,.26,0c.33,0,.6-.11.79-.15l.3-.07a2.48,2.48,0,0,0-.31-.05c-.19,0-.46-.06-.79-.07l-.25,0-.27,0-.58-.06a4.48,4.48,0,0,1-.62-.06l-.63-.07c-.22,0-.43-.05-.64-.07l-.62-.07-.58-.08-.52-.06-.45,0-.34,0Z"/><path class="cls-15" d="M305.45,298.5l.27.15a5.93,5.93,0,0,0,.74.31l.51.16c.18.06.38.11.58.16l.63.13.32,0,.33,0,.66.06c.22,0,.43,0,.64,0l.6,0,.28,0,.25,0a7.56,7.56,0,0,0,.79-.15l.3-.07-.3,0-.79-.07-.25,0-.27,0-.58-.06-.62-.06-.64-.07-.64-.08-.62-.07-.58-.08c-.18,0-.36,0-.52-.06l-.44-.05-.35,0Z"/><path class="cls-15" d="M306.06,293.58a2.21,2.21,0,0,0,.26.14,7,7,0,0,0,.75.31,4.35,4.35,0,0,0,.51.17l.57.16.63.12.33.06.33,0q.33,0,.66.06a3.42,3.42,0,0,0,.64,0l.6,0h.27l.26,0c.33-.05.6-.11.79-.15l.3-.08-.31,0c-.19,0-.46-.06-.79-.08h-.25l-.27,0-.58-.06-.62-.06-.63-.07-.64-.08-.62-.07-.58-.07-.52-.06a3.87,3.87,0,0,0-.45-.05l-.34,0Z"/><path class="cls-15" d="M306.66,288.63l.27.14a6.18,6.18,0,0,0,.75.31,3,3,0,0,0,.51.17l.57.16.63.12.32.06.33,0,.66.06c.22,0,.44,0,.64,0l.6,0,.28,0,.26,0c.33-.05.6-.11.79-.15l.29-.07-.3,0-.79-.07-.25,0-.27,0a5.42,5.42,0,0,0-.58-.06l-.62-.06-.64-.08c-.21,0-.42,0-.63-.07l-.62-.07-.58-.08-.52-.06-.45-.05-.34,0Z"/><path class="cls-15" d="M306.55,283.62a2.77,2.77,0,0,0,.27.15l.74.31a5.14,5.14,0,0,0,.51.16l.58.16c.2,0,.41.09.62.12l.33.06.33,0,.66.06c.21,0,.43,0,.64,0l.6,0,.27,0,.26,0c.33-.05.6-.11.79-.15l.3-.07-.31-.05-.79-.07-.25,0-.27,0a5.16,5.16,0,0,0-.58-.06l-.62-.06L310,284c-.22,0-.43,0-.64-.07l-.62-.07-.58-.08c-.18,0-.36,0-.52-.06l-.44-.05-.35,0Z"/><path class="cls-15" d="M308.58,278l.27.14a6.18,6.18,0,0,0,.75.31,4.86,4.86,0,0,0,.5.17l.58.16.63.12.32.06.33,0,.66,0a4.66,4.66,0,0,0,.64,0l.6,0,.28,0,.26,0c.33,0,.6-.11.79-.15l.29-.07-.3-.05-.79-.07-.25,0-.27,0-.58-.05c-.2,0-.41,0-.62-.07l-.64-.07c-.21,0-.42,0-.63-.07l-.62-.07-.58-.08-.52-.06-.45,0-.34,0Z"/><path class="cls-15" d="M309.16,273.23l.27.15c.18.08.43.2.75.31a4.42,4.42,0,0,0,.51.16l.57.16.63.13.33.05.33,0,.65.06c.22,0,.44,0,.65,0l.59,0,.28,0,.26,0c.33-.05.6-.1.79-.15l.3-.07-.31-.05-.79-.07-.25,0-.27,0-.58-.06-.62-.06-.64-.07-.63-.08-.62-.07-.58-.08c-.18,0-.36,0-.52-.06l-.45-.05-.34,0Z"/><path class="cls-15" d="M321.1,291.93a1.58,1.58,0,0,0,.3.09,5.29,5.29,0,0,0,.78.17l.54.07.59.05h1l.33,0,.66-.07a4.14,4.14,0,0,0,.63-.1l.59-.14.27-.06.24-.09c.32-.11.57-.22.75-.3l.28-.12h-.31c-.19,0-.47,0-.79.07l-.25,0-.27,0-.58.05c-.2,0-.41.05-.62.05l-.64.05c-.21,0-.43,0-.64.05l-.62,0-.59,0-.52,0c-.16,0-.31,0-.45,0l-.34,0Z"/><path class="cls-15" d="M320.61,286l.29.09a7.67,7.67,0,0,0,.79.16l.53.07.6.05h1l.33,0,.66-.07c.21,0,.42-.07.63-.11L326,286l.27-.07.25-.09.75-.29.27-.13h-.31c-.19,0-.46,0-.78.07l-.26,0h-.27l-.58.05c-.2,0-.41,0-.62.06l-.64,0-.64,0-.62.05-.58,0-.53,0-.44,0-.35,0Z"/><path class="cls-15" d="M320.39,278.65l.3.09c.19.05.46.11.78.16a4.41,4.41,0,0,0,.54.07l.59,0h1l.33,0,.66-.07a5.89,5.89,0,0,0,.63-.11l.59-.13.27-.07.24-.09c.32-.11.57-.22.75-.29l.28-.13H327a7.75,7.75,0,0,0-.79.08l-.25,0h-.27l-.58.05c-.2,0-.41,0-.62.06l-.64,0-.64,0-.62.05-.58,0-.53,0-.45,0-.34,0Z"/><path class="cls-15" d="M320,273a1.62,1.62,0,0,0,.29.09,5.47,5.47,0,0,0,.79.17l.53.07.6.05h1l.33,0,.66-.07a4.35,4.35,0,0,0,.63-.1l.58-.14.27-.06.25-.09c.31-.11.57-.22.75-.3a1.53,1.53,0,0,0,.27-.13l-.3,0c-.2,0-.47,0-.79.07l-.25,0-.28,0-.58.05a6,6,0,0,1-.61,0l-.64.05c-.22,0-.43,0-.64.05l-.63,0-.58,0-.52,0c-.17,0-.32,0-.45,0l-.34,0Z"/><path class="cls-15" d="M292.51,291.54l.27.15a5.93,5.93,0,0,0,.74.31l.51.17.58.15.63.13.32.05.33,0,.66.06c.22,0,.43,0,.64,0l.6,0,.28,0,.25,0c.33,0,.61-.1.8-.15l.29-.07-.3,0c-.2,0-.47-.06-.79-.08l-.25,0-.27,0-.58-.06-.62-.06L296,292l-.64-.08-.62-.07-.57-.08c-.19,0-.37,0-.53-.06l-.44-.05-.35,0Z"/><path class="cls-15" d="M295,285a2,2,0,0,0,.27.14,5.93,5.93,0,0,0,.74.31l.51.17.58.16.63.12.32.06.33,0,.66.05a4.61,4.61,0,0,0,.64,0l.6,0,.28,0,.25,0c.33-.05.61-.11.79-.15l.3-.07-.3,0-.79-.07-.26,0-.26,0-.58-.05c-.21,0-.41,0-.62-.07l-.64-.07c-.21,0-.43,0-.64-.07l-.62-.07-.58-.08-.52-.06-.44-.05-.35,0Z"/><path class="cls-15" d="M295.94,277.58l.27.14a6.18,6.18,0,0,0,.75.31l.51.17c.18.05.37.11.57.15l.63.13.33.06.32,0,.66.06a4.6,4.6,0,0,0,.64,0l.6,0h.28l.26,0,.79-.15.29-.08-.3,0c-.19,0-.47-.06-.79-.08l-.25,0-.27,0-.58-.06-.62-.06-.64-.07-.63-.08-.62-.07-.58-.07-.52-.06-.45-.06-.34,0Z"/><path class="cls-15" d="M295.87,271.79l.27.14a6.18,6.18,0,0,0,.75.31l.51.17c.18,0,.37.11.57.15l.63.13.32.05.33,0,.66.06a4.6,4.6,0,0,0,.64,0l.6,0h.28l.26,0c.33-.06.6-.11.79-.16l.29-.07-.3,0c-.19,0-.47-.06-.79-.08l-.25,0-.27,0-.58-.06-.62-.06-.64-.07-.63-.08-.62-.07-.58-.08c-.19,0-.36,0-.52-.06l-.45,0-.34,0Z"/><path class="cls-15" d="M280.24,280.3s0,.13.07.33.08.23.14.38.16.29.27.44a3.8,3.8,0,0,0,.37.47,4.37,4.37,0,0,0,.49.47,2.88,2.88,0,0,0,.27.22,3.15,3.15,0,0,0,.29.22,3.28,3.28,0,0,0,.31.2l.32.19c.21.12.44.22.65.32l.34.13.33.12a5.63,5.63,0,0,0,.64.18l.3.06.28,0a3,3,0,0,0,.5,0,2.4,2.4,0,0,0,.39,0l.34,0-.31-.14c-.1,0-.21-.09-.35-.15a3.8,3.8,0,0,1-.43-.19l-.51-.24-.57-.27c-.19-.09-.38-.2-.59-.29s-.4-.21-.6-.33-.39-.22-.59-.33l-.56-.35c-.17-.12-.35-.22-.51-.34l-.44-.33-.36-.3c-.09-.09-.19-.17-.26-.25A2.85,2.85,0,0,0,280.24,280.3Z"/><path class="cls-15" d="M282.92,274.92a2.42,2.42,0,0,0,.16.28,6,6,0,0,0,.52.67,7.09,7.09,0,0,0,.88.81,5.82,5.82,0,0,0,.54.4c.2.13.4.24.61.35a6,6,0,0,0,.64.29l.33.12.33.1a4.7,4.7,0,0,0,.63.13c.2,0,.39.05.57.05l.49,0c.14,0,.26-.05.37-.06l.31-.08-.31-.1-.34-.09-.44-.15-.24-.08-.25-.1c-.18-.06-.36-.15-.54-.22s-.38-.18-.57-.26l-.58-.29-.57-.31c-.19-.11-.38-.2-.56-.31l-.52-.3-.47-.27-.71-.41L283,275Z"/><path class="cls-15" d="M285,270.37l.19.25a7.88,7.88,0,0,0,.55.61,10.06,10.06,0,0,0,.87.76c.17.12.34.26.52.38l.57.35a5.83,5.83,0,0,0,.6.32,4.59,4.59,0,0,0,.6.27c.19.08.39.14.58.2a4.47,4.47,0,0,0,.54.12,2.88,2.88,0,0,0,.47.06h.37l.31,0-.28-.14-.14-.07-.17-.09c-.12-.07-.25-.12-.39-.21l-.46-.25-.5-.29-1.09-.64-.56-.32-.55-.31c-.36-.2-.7-.38-1-.52s-.55-.27-.73-.35Z"/></g></g></svg>